<?xml version="1.0" encoding="UTF-8"?>
<!-- Generator: visioncortex VTracer 0.6.4 -->
<svg version="1.1" xmlns="http://www.w3.org/2000/svg" width="1024" height="1024">
<path d="M0 0 C1.1 -0 2.2 -0.01 3.33 -0.01 C7 -0.02 10.66 -0.01 14.33 -0 C16.96 -0.01 19.6 -0.01 22.24 -0.02 C28.64 -0.02 35.05 -0.02 41.45 -0.02 C46.66 -0.01 51.87 -0.01 57.07 -0.01 C57.82 -0.01 58.56 -0.01 59.32 -0.01 C60.83 -0.02 62.34 -0.02 63.85 -0.02 C77.98 -0.02 92.11 -0.02 106.25 -0 C118.36 0 130.47 0 142.58 -0.01 C156.67 -0.02 170.75 -0.02 184.83 -0.02 C186.33 -0.01 187.83 -0.01 189.34 -0.01 C190.45 -0.01 190.45 -0.01 191.58 -0.01 C196.78 -0.01 201.97 -0.01 207.17 -0.02 C213.51 -0.02 219.85 -0.02 226.19 -0.01 C229.42 -0.01 232.66 -0.01 235.89 -0.01 C239.4 -0.02 242.91 -0.01 246.42 0 C247.43 -0 248.44 -0.01 249.48 -0.01 C255.8 0.02 261.63 0.78 267.77 2.25 C267.77 2.91 267.77 3.57 267.77 4.25 C268.35 4.53 268.94 4.81 269.53 5.1 C277.16 9.04 282.78 14.63 286.77 22.25 C288.78 28.74 289.06 34.67 289.03 41.44 C289.03 42.54 289.03 43.65 289.04 44.79 C289.04 48.49 289.04 52.18 289.03 55.88 C289.03 58.54 289.04 61.19 289.04 63.85 C289.05 70.3 289.05 76.76 289.04 83.21 C289.04 88.46 289.04 93.71 289.04 98.96 C289.04 99.71 289.04 100.46 289.04 101.23 C289.04 102.75 289.04 104.27 289.04 105.79 C289.05 120.04 289.04 134.28 289.03 148.53 C289.02 160.74 289.02 172.95 289.03 185.16 C289.04 199.35 289.05 213.54 289.04 227.73 C289.04 229.25 289.04 230.76 289.04 232.28 C289.04 233.02 289.04 233.77 289.04 234.53 C289.04 239.77 289.04 245.01 289.05 250.25 C289.05 256.64 289.05 263.04 289.04 269.43 C289.03 272.69 289.03 275.94 289.04 279.2 C289.04 282.74 289.04 286.28 289.03 289.82 C289.03 290.84 289.04 291.86 289.04 292.91 C289.01 299.24 288.25 305.09 286.77 311.25 C286.11 311.25 285.45 311.25 284.77 311.25 C284.55 312.14 284.32 313.03 284.09 313.94 C282.58 317.75 280.79 319.52 277.77 322.25 C277.17 322.93 276.58 323.62 275.96 324.32 C268.02 331.35 258.89 331.4 248.79 331.39 C247.68 331.39 246.57 331.39 245.42 331.39 C241.7 331.4 237.98 331.4 234.27 331.4 C231.6 331.4 228.93 331.41 226.27 331.41 C219.78 331.42 213.28 331.42 206.79 331.42 C201.52 331.42 196.24 331.42 190.96 331.43 C175.99 331.44 161.02 331.44 146.05 331.44 C145.24 331.44 144.43 331.44 143.6 331.44 C142.39 331.44 142.39 331.44 141.16 331.44 C128.07 331.44 114.98 331.45 101.89 331.46 C88.44 331.48 75 331.48 61.55 331.48 C54.01 331.48 46.46 331.49 38.91 331.5 C32.49 331.51 26.06 331.51 19.64 331.5 C16.36 331.5 13.09 331.5 9.81 331.51 C6.25 331.51 2.7 331.51 -0.86 331.5 C-1.89 331.51 -2.92 331.51 -3.97 331.52 C-16.25 331.46 -23.35 329.03 -32.23 320.25 C-39.93 311.29 -41.68 301.35 -41.61 289.84 C-41.61 288.73 -41.62 287.62 -41.62 286.48 C-41.63 282.79 -41.62 279.1 -41.62 275.42 C-41.62 272.76 -41.62 270.11 -41.63 267.46 C-41.64 261.01 -41.64 254.56 -41.63 248.12 C-41.63 242.88 -41.63 237.63 -41.63 232.39 C-41.63 231.64 -41.63 230.9 -41.63 230.13 C-41.63 228.61 -41.63 227.09 -41.63 225.57 C-41.64 211.34 -41.63 197.12 -41.62 182.89 C-41.6 170.7 -41.6 158.51 -41.62 146.32 C-41.63 132.14 -41.64 117.97 -41.63 103.79 C-41.63 102.28 -41.63 100.76 -41.63 99.25 C-41.63 98.5 -41.63 97.76 -41.63 96.99 C-41.62 91.76 -41.63 86.53 -41.64 81.3 C-41.64 74.92 -41.64 68.54 -41.63 62.16 C-41.62 58.9 -41.62 55.65 -41.63 52.4 C-41.63 48.87 -41.62 45.33 -41.61 41.8 C-41.61 40.78 -41.62 39.77 -41.63 38.72 C-41.56 30.43 -40.16 22.62 -36.23 15.25 C-35.57 15.25 -34.91 15.25 -34.23 15.25 C-33.9 14.26 -33.57 13.27 -33.23 12.25 C-31.7 10.72 -31.7 10.72 -29.85 9.19 C-29.25 8.68 -28.64 8.18 -28.02 7.66 C-23.68 4.25 -23.68 4.25 -20.23 4.25 C-20.23 3.59 -20.23 2.93 -20.23 2.25 C-13.35 0.47 -7.09 -0.03 0 0 Z M181.77 106.25 C181.44 106.91 181.11 107.57 180.77 108.25 C180.11 108.58 179.45 108.91 178.77 109.25 C178.77 110.57 178.77 111.89 178.77 113.25 C176.44 114.46 174.28 115.42 171.77 116.25 C170.42 118.24 169.09 120.24 167.77 122.25 C165.27 124.88 162.67 127.35 160.02 129.82 C157.63 131.99 157.63 131.99 157.34 134.44 C157.06 135.34 157.06 135.34 156.77 136.25 C155.84 136.52 154.92 136.79 153.96 137.07 C149.98 138.55 149.57 139.94 147.78 143.58 C146.32 146.01 144.22 146.93 141.77 148.25 C141.44 149.24 141.11 150.23 140.77 151.25 C140.11 151.25 139.45 151.25 138.77 151.25 C138.77 151.91 138.77 152.57 138.77 153.25 C137.29 153.75 137.29 153.75 135.77 154.25 C134.41 155.89 133.08 157.57 131.77 159.25 C130.13 160.94 128.46 162.61 126.77 164.25 C125.6 165.42 124.44 166.59 123.27 167.75 C121.31 169.71 119.35 171.67 117.37 173.61 C113.79 177.26 110.5 181.14 107.18 185.02 C104.77 187.25 104.77 187.25 100.77 187.25 C98.98 185.29 97.38 183.36 95.77 181.25 C93.77 178.92 93.77 178.92 91.77 177.25 C90.78 177.25 89.79 177.25 88.77 177.25 C88.44 175.93 88.11 174.61 87.77 173.25 C86.45 172.92 85.13 172.59 83.77 172.25 C83.77 171.26 83.77 170.27 83.77 169.25 C82.78 169.25 81.79 169.25 80.77 169.25 C80.44 167.93 80.11 166.61 79.77 165.25 C78.78 165.25 77.79 165.25 76.77 165.25 C76.28 163.27 76.28 163.27 75.77 161.25 C74.78 161.25 73.79 161.25 72.77 161.25 C72.73 160.7 72.69 160.14 72.65 159.57 C71.31 156.02 68.76 154.47 65.77 152.25 C62.86 151.28 60.87 151.09 57.84 151.07 C56.98 151.05 56.13 151.04 55.25 151.02 C51.66 151.36 49.64 152.41 47.07 154.92 C44.41 158.29 42.37 160.98 42.21 165.38 C43.19 172.15 46.05 175.64 50.77 180.25 C52.04 181.52 53.3 182.78 54.57 184.05 C55.27 184.75 55.97 185.46 56.7 186.18 C65.46 194.94 74.22 203.7 82.98 212.46 C83.97 213.45 83.97 213.45 84.97 214.45 C86.08 215.56 87.19 216.68 88.3 217.79 C94.43 224.17 94.43 224.17 102.59 226.44 C106.05 226.41 108.64 225.82 111.77 224.25 C111.77 223.59 111.77 222.93 111.77 222.25 C112.35 222.01 112.93 221.76 113.52 221.5 C116.1 220.07 117.83 218.47 119.77 216.25 C119.77 215.59 119.77 214.93 119.77 214.25 C121.09 213.59 122.41 212.93 123.77 212.25 C123.77 211.59 123.77 210.93 123.77 210.25 C124.43 210.25 125.09 210.25 125.77 210.25 C125.77 209.59 125.77 208.93 125.77 208.25 C126.33 208.03 126.89 207.8 127.46 207.57 C131.46 205.3 134.31 202.63 135.77 198.25 C136.43 198.25 137.09 198.25 137.77 198.25 C137.77 197.59 137.77 196.93 137.77 196.25 C138.43 196.25 139.09 196.25 139.77 196.25 C142.8 193.2 142.8 193.2 143.77 189.25 C144.43 189.25 145.09 189.25 145.77 189.25 C145.77 188.59 145.77 187.93 145.77 187.25 C146.76 186.92 147.75 186.59 148.77 186.25 C148.77 185.26 148.77 184.27 148.77 183.25 C149.76 182.92 150.75 182.59 151.77 182.25 C152.27 180.77 152.27 180.77 152.77 179.25 C154.43 178.24 156.1 177.24 157.77 176.25 C157.77 175.59 157.77 174.93 157.77 174.25 C158.43 174.25 159.09 174.25 159.77 174.25 C161.46 172.27 163.13 170.27 164.77 168.25 C165.43 167.92 166.09 167.59 166.77 167.25 C166.77 166.59 166.77 165.93 166.77 165.25 C167.43 165.25 168.09 165.25 168.77 165.25 C170.44 163.92 170.44 163.92 171.77 162.25 C171.77 161.59 171.77 160.93 171.77 160.25 C172.37 159.99 172.97 159.73 173.59 159.46 C175.9 158.18 177.07 156.99 178.71 154.94 C181.87 151.12 185.29 147.68 188.86 144.24 C189.6 143.52 190.33 142.8 191.09 142.07 C191.78 141.39 192.48 140.72 193.2 140.02 C194.99 138.4 194.99 138.4 194.77 136.25 C195.76 135.92 196.75 135.59 197.77 135.25 C199.02 133.81 200.26 132.37 201.44 130.88 C202.77 129.25 202.77 129.25 205.52 126.57 C208.62 123.38 208.91 120.96 208.9 116.69 C208.9 115.91 208.9 115.12 208.91 114.31 C208.9 112.19 208.9 112.19 207.77 110.25 C207.11 110.25 206.45 110.25 205.77 110.25 C205.57 109.51 205.36 108.77 205.15 108 C203.3 104.32 201.43 103.12 197.77 101.25 C191.28 100.57 186.7 102.03 181.77 106.25 Z " fill="#22C35D" transform="translate(560.2272796630859,173.74603271484375)"/>
<path d="M0 0 C1.72 -0.01 1.72 -0.01 3.47 -0.01 C7.31 -0.02 11.15 -0.02 14.99 -0.01 C17.74 -0.02 20.49 -0.02 23.24 -0.03 C29.94 -0.04 36.64 -0.04 43.34 -0.04 C48.78 -0.04 54.22 -0.04 59.67 -0.05 C60.44 -0.05 61.22 -0.05 62.02 -0.05 C63.59 -0.05 65.16 -0.05 66.74 -0.05 C81.5 -0.06 96.25 -0.06 111.01 -0.05 C124.52 -0.05 138.02 -0.06 151.53 -0.08 C165.39 -0.1 179.26 -0.11 193.13 -0.1 C200.91 -0.1 208.7 -0.1 216.48 -0.12 C223.11 -0.13 229.73 -0.13 236.36 -0.12 C239.74 -0.11 243.12 -0.11 246.5 -0.12 C250.17 -0.13 253.83 -0.13 257.49 -0.11 C258.56 -0.12 259.63 -0.13 260.74 -0.14 C265.94 -0.1 269.4 -0.02 273.68 3.26 C274.34 3.26 275 3.26 275.68 3.26 C276.86 4.47 276.86 4.47 278.06 5.7 C280.5 8.08 281.41 8.9 284.68 9.26 C284.78 10.1 284.78 10.1 284.87 10.95 C286.02 14.21 288.18 15.95 290.68 18.26 C290.35 19.25 290.02 20.24 289.68 21.26 C290.34 21.59 291 21.92 291.68 22.26 C293.82 25.47 293.93 26.29 293.94 29.98 C293.94 30.96 293.95 31.93 293.95 32.94 C293.95 34.01 293.95 35.09 293.94 36.2 C293.95 37.34 293.95 38.48 293.95 39.65 C293.96 42.82 293.96 45.99 293.96 49.16 C293.96 52.58 293.96 56 293.97 59.42 C293.99 66.11 293.99 72.81 293.98 79.51 C293.98 84.95 293.98 90.4 293.99 95.84 C293.99 96.62 293.99 97.39 293.99 98.19 C293.99 99.76 293.99 101.34 293.99 102.91 C294.01 117.67 294 132.44 294 147.2 C293.99 160.71 294 174.21 294.02 187.71 C294.04 201.57 294.05 215.44 294.05 229.3 C294.04 237.08 294.05 244.87 294.06 252.65 C294.07 259.28 294.07 265.91 294.06 272.54 C294.06 275.92 294.06 279.3 294.07 282.68 C294.08 286.35 294.07 290.02 294.06 293.69 C294.06 294.75 294.07 295.82 294.08 296.91 C294.03 303.92 292.83 308.96 289.68 315.26 C289.02 315.26 288.36 315.26 287.68 315.26 C287.68 316.25 287.68 317.24 287.68 318.26 C287.02 318.26 286.36 318.26 285.68 318.26 C285.5 318.84 285.31 319.42 285.12 320.01 C283.57 322.44 282.59 323.04 280.12 324.39 C276.65 325.86 276.65 325.86 275.68 328.26 C268.67 330.6 261.26 330.54 253.96 330.5 C252.82 330.5 251.68 330.5 250.51 330.51 C246.71 330.51 242.92 330.5 239.12 330.49 C236.39 330.49 233.66 330.49 230.93 330.49 C225.06 330.49 219.19 330.48 213.33 330.47 C204.84 330.46 196.36 330.45 187.88 330.45 C174.11 330.44 160.35 330.43 146.58 330.41 C133.21 330.39 119.85 330.38 106.48 330.37 C105.66 330.37 104.83 330.37 103.98 330.37 C99.84 330.37 95.71 330.36 91.57 330.36 C57.27 330.34 22.98 330.31 -11.32 330.26 C-11.65 329.27 -11.98 328.28 -12.32 327.26 C-13.31 327.59 -14.3 327.92 -15.32 328.26 C-17.22 327.12 -17.22 327.12 -19.26 325.45 C-21.3 323.79 -23.1 322.36 -25.47 321.21 C-28.13 319.84 -28.9 317.85 -30.32 315.26 C-30.81 314.64 -31.3 314.02 -31.8 313.38 C-36.74 306.47 -36.75 297.77 -36.69 289.61 C-36.7 288.47 -36.7 287.34 -36.7 286.17 C-36.71 282.4 -36.7 278.63 -36.69 274.85 C-36.69 272.14 -36.7 269.42 -36.7 266.71 C-36.71 260.12 -36.7 253.53 -36.69 246.93 C-36.68 239.26 -36.68 231.58 -36.68 223.9 C-36.69 210.2 -36.67 196.5 -36.65 182.81 C-36.63 169.52 -36.63 156.22 -36.63 142.93 C-36.64 128.45 -36.64 113.97 -36.63 99.48 C-36.63 97.94 -36.63 96.4 -36.62 94.85 C-36.62 94.09 -36.62 93.33 -36.62 92.55 C-36.62 87.2 -36.62 81.85 -36.62 76.49 C-36.62 69.97 -36.62 63.46 -36.6 56.94 C-36.6 53.61 -36.59 50.28 -36.6 46.96 C-36.6 43.36 -36.59 39.75 -36.58 36.15 C-36.58 35.1 -36.59 34.04 -36.59 32.95 C-36.58 31.99 -36.58 31.03 -36.57 30.04 C-36.57 29.2 -36.57 28.37 -36.57 27.52 C-36.29 25.02 -35.56 23.43 -34.32 21.26 C-33.82 20.26 -33.82 20.26 -33.32 19.25 C-32.99 18.59 -32.66 17.94 -32.32 17.26 C-32.01 16.64 -31.7 16.01 -31.38 15.37 C-27.62 8.58 -21.94 4.28 -14.86 1.19 C-9.88 -0.11 -5.13 -0.02 0 0 Z M62.87 86.64 C62.15 87.5 61.43 88.37 60.68 89.26 C60.35 89.59 60.02 89.92 59.68 90.26 C59.58 91.92 59.54 93.59 59.54 95.25 C59.53 96.31 59.52 97.38 59.52 98.48 C59.52 99.64 59.52 100.8 59.51 102 C59.51 103.2 59.51 104.39 59.5 105.62 C59.5 108.16 59.5 110.69 59.5 113.23 C59.49 117.08 59.48 120.94 59.46 124.79 C59.45 127.26 59.45 129.72 59.45 132.19 C59.44 133.33 59.44 134.48 59.43 135.65 C59.45 142.73 60.16 149.35 61.68 156.26 C62.34 156.26 63 156.26 63.68 156.26 C63.68 157.91 63.68 159.56 63.68 161.26 C64.34 161.26 65 161.26 65.68 161.26 C65.8 162.12 65.8 162.12 65.93 163 C67.47 167.61 71.84 170.53 75.68 173.26 C78.42 174.36 80.74 174.8 83.68 175.26 C84.34 175.59 85 175.92 85.68 176.26 C85.35 177.25 85.02 178.24 84.68 179.26 C84.59 181.25 84.55 183.25 84.55 185.25 C84.55 186.48 84.55 187.71 84.54 188.98 C84.55 190.32 84.55 191.67 84.55 193.01 C84.55 194.39 84.55 195.77 84.55 197.15 C84.55 200.03 84.55 202.92 84.55 205.81 C84.56 209.51 84.55 213.22 84.55 216.92 C84.54 219.76 84.55 222.61 84.55 225.46 C84.55 226.82 84.55 228.19 84.55 229.55 C84.54 231.46 84.55 233.37 84.55 235.28 C84.55 236.36 84.55 237.45 84.56 238.57 C84.56 241.36 84.56 241.36 85.68 244.26 C88.5 246.56 88.5 246.56 91.68 246.14 C95.23 245.1 95.87 244.41 97.68 241.26 C98.14 238.34 98.14 238.34 98.08 235.07 C98.1 233.82 98.11 232.57 98.12 231.28 C98.12 229.92 98.12 228.56 98.12 227.19 C98.14 225.79 98.15 224.4 98.16 223 C98.2 219.32 98.22 215.64 98.24 211.96 C98.26 206.06 98.3 200.17 98.36 194.28 C98.37 192.22 98.38 190.16 98.38 188.1 C98.39 186.86 98.4 185.61 98.41 184.32 C98.42 183.22 98.42 182.12 98.42 180.99 C98.68 178.26 98.68 178.26 100.68 175.26 C102.49 174.42 102.49 174.42 104.56 173.76 C107.71 172.67 110.23 171.61 112.68 169.26 C112.68 168.6 112.68 167.94 112.68 167.26 C113.55 166.95 113.55 166.95 114.43 166.64 C118.61 164.08 120.33 160.29 121.87 155.76 C123.07 150.58 123.81 145.7 123.81 140.38 C123.82 138.68 123.82 138.68 123.82 136.94 C123.82 135.73 123.82 134.52 123.82 133.28 C123.82 131.4 123.82 131.4 123.82 129.48 C123.82 126.84 123.82 124.2 123.81 121.56 C123.81 118.18 123.81 114.79 123.82 111.41 C123.82 108.18 123.82 104.95 123.82 101.71 C123.82 99.89 123.82 99.89 123.82 98.02 C123.82 96.9 123.81 95.78 123.81 94.62 C123.81 93.63 123.81 92.64 123.81 91.62 C123.84 89.24 123.84 89.24 122.68 87.26 C122.02 87.26 121.36 87.26 120.68 87.26 C120.19 86.27 120.19 86.27 119.68 85.26 C116.06 84.05 115.04 84.72 111.68 86.26 C111.68 87.25 111.68 88.24 111.68 89.26 C111.02 89.26 110.36 89.26 109.68 89.26 C109.67 90.01 109.66 90.77 109.65 91.54 C109.55 98.65 109.45 105.76 109.34 112.86 C109.29 116.52 109.23 120.17 109.18 123.82 C109.14 127.35 109.08 130.88 109.03 134.4 C109 136.4 108.97 138.4 108.95 140.39 C108.93 141.61 108.91 142.84 108.89 144.09 C108.87 145.17 108.86 146.24 108.84 147.34 C108.69 150.08 108.26 152.58 107.68 155.26 C107.68 155.92 107.68 156.58 107.68 157.26 C107.02 157.26 106.36 157.26 105.68 157.26 C105.02 157.92 104.36 158.58 103.68 159.26 C102.03 159.97 100.37 160.64 98.68 161.26 C98.85 160.54 99.01 159.83 99.18 159.09 C99.67 156.31 99.77 153.86 99.7 151.05 C99.68 150.03 99.66 149.02 99.64 147.97 C99.62 146.88 99.59 145.79 99.56 144.67 C99.54 143.53 99.51 142.4 99.49 141.23 C99.41 137.59 99.33 133.96 99.24 130.32 C99.17 126.73 99.09 123.13 99.01 119.54 C98.96 117.23 98.91 114.91 98.85 112.6 C98.7 105.64 98.68 98.72 98.96 91.76 C98.63 88.75 97.74 87.45 95.68 85.26 C93.89 84.17 93.89 84.17 91.68 84.26 C89.7 85.25 87.72 86.24 85.68 87.26 C85.35 111.02 85.02 134.78 84.68 159.26 C79.68 158.26 79.68 158.26 78.35 156.74 C78.05 156.13 77.75 155.52 77.43 154.89 C77.12 154.28 76.8 153.67 76.48 153.05 C74.86 149.41 74.55 146.52 74.51 142.57 C74.5 141.4 74.48 140.23 74.47 139.03 C74.45 137.13 74.45 137.13 74.44 135.2 C74.41 133.22 74.39 131.24 74.36 129.26 C74.3 124.38 74.25 119.49 74.21 114.61 C74.18 111.86 74.15 109.12 74.11 106.38 C74.08 103.8 74.05 101.22 74.04 98.63 C74.02 97.46 74 96.29 73.99 95.08 C73.97 94.05 73.96 93.02 73.95 91.96 C73.68 89.2 73.24 87.55 71.68 85.26 C67.5 83.68 66.34 83.7 62.87 86.64 Z M173.68 93.26 C173.68 95.24 173.68 97.22 173.68 99.26 C174.34 99.26 175 99.26 175.68 99.26 C175.73 108.14 175.76 117.01 175.79 125.89 C175.8 130.01 175.81 134.13 175.83 138.25 C175.85 142.23 175.87 146.21 175.87 150.2 C175.88 151.71 175.88 153.23 175.89 154.74 C175.91 156.87 175.91 159 175.91 161.13 C175.91 162.34 175.92 163.55 175.92 164.8 C175.65 168.66 175.21 171.7 173.68 175.26 C170.56 176.7 170.56 176.7 167.68 177.26 C167.51 185.54 167.34 193.81 167.19 202.09 C167.12 205.93 167.04 209.77 166.96 213.62 C166.88 217.32 166.81 221.03 166.74 224.74 C166.72 226.16 166.69 227.57 166.66 228.99 C166.61 230.97 166.58 232.95 166.55 234.93 C166.52 236.06 166.5 237.19 166.48 238.35 C166.68 241.25 167.05 242.88 168.68 245.26 C171.73 246.41 173.3 246.37 176.43 245.45 C178.82 244.47 178.82 244.47 179.68 242.26 C179.8 240.29 179.86 238.32 179.89 236.34 C179.91 235.1 179.93 233.86 179.95 232.58 C179.96 231.22 179.98 229.86 180 228.5 C180.02 227.12 180.04 225.73 180.06 224.34 C180.12 220.69 180.17 217.04 180.21 213.38 C180.26 209.66 180.32 205.93 180.38 202.2 C180.48 194.89 180.58 187.57 180.68 180.26 C188.6 180.26 196.52 180.26 204.68 180.26 C207.12 170.51 205.75 159.98 204.12 150.19 C203.68 147.26 203.68 147.26 203.68 143.26 C203.02 143.26 202.36 143.26 201.68 143.26 C201.74 142.29 201.81 141.32 201.87 140.32 C201.9 135.65 200.33 131.59 198.68 127.26 C198.02 127.26 197.36 127.26 196.68 127.26 C196.58 126.56 196.48 125.86 196.37 125.14 C194.83 118.71 191.03 113.79 187.21 108.53 C185.68 106.26 185.68 106.26 184.68 103.26 C184.02 103.26 183.36 103.26 182.68 103.26 C182.68 102.6 182.68 101.94 182.68 101.26 C182.02 101.26 181.36 101.26 180.68 101.26 C180.68 100.6 180.68 99.94 180.68 99.26 C180.02 99.26 179.36 99.26 178.68 99.26 C178.68 98.6 178.68 97.94 178.68 97.26 C177.06 95.88 175.39 94.54 173.68 93.26 Z " fill="#F9CC16" transform="translate(211.31776428222656,518.7393035888672)"/>
<path d="M0 0 C1.11 -0 2.21 -0 3.35 -0.01 C7.05 -0.01 10.74 -0.01 14.44 -0.01 C17.1 -0.01 19.75 -0.02 22.4 -0.02 C28.86 -0.03 35.31 -0.03 41.76 -0.03 C47.01 -0.03 52.25 -0.04 57.5 -0.04 C72.37 -0.05 87.25 -0.05 102.12 -0.05 C103.33 -0.05 103.33 -0.05 104.55 -0.05 C105.35 -0.05 106.16 -0.05 106.98 -0.05 C120 -0.05 133.01 -0.06 146.02 -0.07 C159.39 -0.09 172.75 -0.1 186.12 -0.1 C193.62 -0.09 201.12 -0.1 208.62 -0.11 C215.01 -0.12 221.39 -0.12 227.78 -0.11 C231.03 -0.11 234.29 -0.11 237.55 -0.12 C241.08 -0.13 244.61 -0.12 248.14 -0.11 C249.17 -0.12 250.2 -0.12 251.26 -0.13 C252.21 -0.12 253.15 -0.12 254.13 -0.12 C254.94 -0.12 255.76 -0.12 256.6 -0.12 C259.32 0.17 261.43 1.05 263.94 2.13 C265.61 2.48 267.27 2.82 268.94 3.13 C269.6 3.46 270.26 3.79 270.94 4.13 C270.94 4.79 270.94 5.45 270.94 6.13 C272.92 6.63 272.92 6.63 274.94 7.13 C274.94 7.79 274.94 8.45 274.94 9.13 C275.58 9.26 276.22 9.38 276.88 9.51 C277.56 9.71 278.24 9.92 278.94 10.13 C279.27 10.79 279.6 11.45 279.94 12.13 C279.61 12.79 279.28 13.45 278.94 14.13 C280.92 14.63 280.92 14.63 282.94 15.13 C282.94 16.12 282.94 17.11 282.94 18.13 C283.6 18.13 284.26 18.13 284.94 18.13 C286.3 20.84 286.01 23.14 285.94 26.13 C286.6 26.13 287.26 26.13 287.94 26.13 C288.03 61.63 288.1 97.13 288.15 132.63 C288.15 136.83 288.16 141.02 288.16 145.21 C288.16 146.05 288.16 146.88 288.16 147.74 C288.18 161.25 288.21 174.76 288.25 188.27 C288.29 202.13 288.31 216 288.32 229.86 C288.32 238.42 288.34 246.97 288.37 255.52 C288.39 261.39 288.4 267.26 288.4 273.13 C288.39 276.51 288.4 279.89 288.42 283.28 C288.44 286.95 288.43 290.63 288.42 294.3 C288.43 295.36 288.45 296.42 288.46 297.51 C288.39 305.78 286.97 313.18 280.94 319.13 C280.61 320.12 280.28 321.11 279.94 322.13 C277.65 323.89 277.65 323.89 274.75 325.7 C273.34 326.6 273.34 326.6 271.9 327.51 C265.08 331.25 259.2 331.42 251.59 331.37 C249.87 331.38 249.87 331.38 248.11 331.38 C244.93 331.38 241.75 331.38 238.57 331.37 C235.14 331.36 231.71 331.36 228.28 331.36 C222.34 331.36 216.39 331.36 210.45 331.35 C201.86 331.33 193.27 331.32 184.68 331.32 C170.74 331.32 156.8 331.3 142.86 331.28 C129.32 331.27 115.78 331.25 102.24 331.24 C100.99 331.24 100.99 331.24 99.71 331.24 C95.52 331.24 91.34 331.24 87.15 331.23 C52.41 331.21 17.68 331.18 -17.06 331.13 C-17.06 330.47 -17.06 329.81 -17.06 329.13 C-17.76 329.22 -18.46 329.3 -19.18 329.38 C-24.58 328.91 -27.86 325.52 -31.25 321.57 C-31.71 320.99 -32.18 320.41 -32.66 319.82 C-34.04 318.1 -34.04 318.1 -35.69 316.56 C-37.35 314.83 -37.66 313.46 -38.06 311.13 C-38.72 311.13 -39.38 311.13 -40.06 311.13 C-42.01 304.58 -42.35 298.61 -42.35 291.79 C-42.35 290.66 -42.36 289.54 -42.37 288.38 C-42.39 284.63 -42.39 280.87 -42.4 277.11 C-42.41 274.41 -42.42 271.72 -42.43 269.02 C-42.47 260.93 -42.48 252.85 -42.5 244.76 C-42.5 240.95 -42.51 237.13 -42.52 233.32 C-42.55 220.63 -42.57 207.94 -42.59 195.24 C-42.59 194.43 -42.59 193.62 -42.59 192.79 C-42.59 191.97 -42.59 191.16 -42.59 190.32 C-42.59 188.67 -42.59 187.03 -42.59 185.38 C-42.59 184.56 -42.6 183.74 -42.6 182.9 C-42.61 169.67 -42.65 156.44 -42.71 143.2 C-42.76 129.59 -42.79 115.99 -42.8 102.38 C-42.8 94.75 -42.82 87.12 -42.86 79.48 C-42.9 72.98 -42.91 66.48 -42.89 59.98 C-42.88 56.67 -42.89 53.36 -42.92 50.05 C-43.16 21.66 -43.16 21.66 -32.44 10.38 C-22.57 1.08 -13.12 -0.02 0 0 Z M45.94 113.13 C42.03 118.66 41.37 122.7 41.49 129.37 C41.49 130.27 41.49 131.17 41.49 132.1 C41.49 135.05 41.52 137.99 41.55 140.94 C41.56 142.99 41.56 145.05 41.57 147.1 C41.58 152.49 41.62 157.87 41.67 163.26 C41.71 168.77 41.73 174.27 41.75 179.77 C41.79 190.56 41.86 201.35 41.94 212.13 C42.27 212.13 42.6 212.13 42.94 212.13 C43.6 214.11 44.26 216.09 44.94 218.13 C45.93 218.13 46.92 218.13 47.94 218.13 C47.94 218.79 47.94 219.45 47.94 220.13 C51.16 222.07 53.23 222.31 56.94 221.88 C57.79 221.8 58.63 221.71 59.5 221.62 C62.16 221.09 63.76 220.75 65.94 219.13 C69.05 213.68 69.35 209.07 69.19 202.88 C69.19 202.08 69.18 201.28 69.18 200.45 C69.13 197.12 69 194.32 67.94 191.13 C67.93 188.3 67.97 185.5 68.06 182.67 C68.09 181.82 68.11 180.97 68.13 180.1 C68.19 178.27 68.24 176.44 68.29 174.61 C68.44 169.83 68.55 165.05 68.67 160.27 C68.69 159.32 68.72 158.37 68.74 157.39 C68.81 154.64 68.87 151.89 68.94 149.13 C68.97 147.94 68.97 147.94 69 146.72 C69.12 141.98 69.2 137.25 69.25 132.51 C69.28 131.36 69.31 130.21 69.34 129.02 C69.39 122.76 69.17 117.1 64.94 112.13 C58.67 109.13 51.65 109.21 45.94 113.13 Z M180.19 115.01 C177.33 119.87 177.92 125.16 178.1 130.61 C177.94 133.13 177.94 133.13 175.94 136.13 C174.77 134.93 174.77 134.93 173.57 133.7 C170.43 130.56 170.43 130.56 166.26 130.08 C165.21 130.14 164.15 130.2 163.07 130.26 C161.49 130.32 161.49 130.32 159.89 130.39 C156.82 130.93 156.82 130.93 154.57 133.15 C152.38 137.17 152.56 140.27 152.82 144.76 C153.18 152.77 153.18 152.77 150.94 156.13 C149.93 155.81 148.91 155.48 147.87 155.15 C144.24 154.12 140.93 153.89 137.14 153.9 C135.86 153.9 134.58 153.91 133.26 153.91 C131.91 153.92 130.55 153.93 129.19 153.95 C127.8 153.95 126.41 153.96 125.02 153.97 C114.64 154.03 104.3 154.4 93.94 155.13 C93.89 154.06 93.84 152.99 93.79 151.88 C93.72 150.44 93.64 149.01 93.57 147.57 C93.54 146.87 93.5 146.16 93.47 145.44 C93.22 137.73 93.22 137.73 89.94 131.13 C87.7 130.98 85.44 130.91 83.19 130.88 C81.96 130.86 80.73 130.83 79.46 130.81 C75.6 131.17 73.77 131.47 70.94 134.13 C69.59 141.11 69.9 148.09 70.06 155.16 C70.09 156.4 70.11 157.63 70.13 158.9 C70.21 162.81 70.29 166.72 70.38 170.63 C70.43 173.3 70.49 175.96 70.54 178.62 C70.67 185.12 70.8 191.63 70.94 198.13 C71.6 198.13 72.26 198.13 72.94 198.13 C72.94 198.79 72.94 199.45 72.94 200.13 C79.01 203.17 84.61 201.47 90.94 200.13 C92.83 195.27 93.31 190.96 93.5 185.82 C93.82 178.26 93.82 178.26 94.94 177.13 C96.75 177.04 98.57 177.02 100.38 177.02 C102.12 177.02 102.12 177.02 103.9 177.02 C105.79 177.03 105.79 177.03 107.73 177.04 C109.66 177.04 109.66 177.04 111.62 177.04 C115.05 177.04 118.47 177.05 121.9 177.07 C125.39 177.08 128.88 177.08 132.37 177.08 C139.23 177.1 146.09 177.11 152.94 177.13 C152.92 178.29 152.9 179.45 152.87 180.64 C152.85 182.18 152.83 183.72 152.82 185.26 C152.79 186.4 152.79 186.4 152.77 187.56 C152.73 192.13 153.05 195.88 154.94 200.13 C157.88 201.6 160.55 201.38 163.82 201.45 C165.67 201.5 165.67 201.5 167.56 201.56 C171 201.42 171 201.42 173.32 199.24 C176.26 195.41 176.15 192.17 176.26 187.5 C176.29 186.37 176.29 186.37 176.32 185.22 C176.39 182.82 176.45 180.41 176.5 178.01 C176.55 176.38 176.59 174.75 176.63 173.12 C176.74 169.13 176.84 165.13 176.94 161.13 C176.93 162.67 176.93 162.67 176.93 164.24 C176.91 168.03 176.9 171.82 176.89 175.61 C176.88 177.25 176.87 178.89 176.87 180.53 C176.85 182.89 176.85 185.24 176.84 187.6 C176.84 188.34 176.83 189.08 176.83 189.84 C176.83 191.6 176.88 193.37 176.94 195.13 C177.27 195.46 177.6 195.79 177.94 196.13 C177.92 197.92 177.89 199.72 177.82 201.51 C177.4 210.51 177.4 210.51 180.49 218.77 C183.54 221.64 186.85 222.15 190.94 222.13 C194.56 221.66 197.81 221.04 200.94 219.13 C204.16 214.09 204.38 209.93 204.35 204.15 C204.35 203.27 204.36 202.38 204.37 201.47 C204.38 198.56 204.38 195.65 204.38 192.74 C204.38 190.71 204.39 188.67 204.39 186.64 C204.4 182.38 204.4 178.13 204.39 173.87 C204.38 168.43 204.4 162.99 204.43 157.55 C204.44 153.35 204.44 149.15 204.44 144.95 C204.44 142.95 204.44 140.94 204.46 138.94 C204.47 136.13 204.46 133.32 204.44 130.51 C204.45 129.69 204.46 128.87 204.47 128.03 C204.4 122.21 203.19 117.04 199.94 112.13 C192.6 108.73 185.84 108.96 180.19 115.01 Z " fill="#FE6B35" transform="translate(217.05838012695313,173.8662872314453)"/>
<path d="M0 0 C1.12 -0 2.23 -0.01 3.38 -0.01 C7.1 -0.03 10.82 -0.02 14.54 -0.01 C17.22 -0.01 19.89 -0.02 22.57 -0.02 C29.07 -0.04 35.57 -0.03 42.07 -0.02 C47.36 -0.02 52.64 -0.02 57.93 -0.02 C58.68 -0.02 59.44 -0.02 60.21 -0.02 C61.75 -0.02 63.28 -0.02 64.81 -0.02 C79.15 -0.03 93.5 -0.02 107.84 -0.01 C120.13 0.01 132.43 0 144.72 -0.01 C159.02 -0.03 173.31 -0.03 187.6 -0.02 C189.13 -0.02 190.65 -0.02 192.18 -0.02 C193.3 -0.02 193.3 -0.02 194.45 -0.02 C199.73 -0.02 205 -0.02 210.28 -0.03 C216.72 -0.04 223.15 -0.03 229.59 -0.02 C232.87 -0.01 236.15 -0.01 239.43 -0.02 C242.99 -0.03 246.55 -0.01 250.11 0 C251.14 -0.01 252.17 -0.01 253.23 -0.02 C259.8 0.03 268.24 0.15 273.27 4.95 C273.71 5.42 274.16 5.9 274.62 6.38 C275.32 6.55 276.02 6.71 276.75 6.88 C277.36 7.05 277.98 7.21 278.62 7.38 C278.95 8.37 279.28 9.36 279.62 10.38 C280.38 11.14 281.15 11.91 281.93 12.69 C289.41 20.17 291.94 28.34 292.02 38.7 C292.02 39.74 292.01 40.77 292 41.84 C292.01 42.97 292.01 44.09 292.02 45.25 C292.03 49 292.02 52.75 292.01 56.5 C292.01 59.2 292.02 61.9 292.02 64.59 C292.04 71.15 292.04 77.7 292.03 84.25 C292.02 89.58 292.02 94.91 292.02 100.23 C292.02 100.99 292.02 101.75 292.02 102.54 C292.02 104.08 292.03 105.62 292.03 107.16 C292.04 121.62 292.03 136.07 292.01 150.53 C292 162.92 292 175.31 292.01 187.7 C292.03 202.11 292.03 216.51 292.03 230.92 C292.02 232.45 292.02 233.99 292.02 235.53 C292.02 236.28 292.02 237.04 292.02 237.82 C292.02 243.14 292.02 248.46 292.03 253.78 C292.04 260.26 292.04 266.75 292.02 273.23 C292.01 276.54 292.01 279.84 292.02 283.15 C292.03 286.74 292.02 290.33 292 293.92 C292.01 294.96 292.02 295.99 292.02 297.06 C291.97 303.36 291.02 308.55 288.62 314.38 C287.96 314.38 287.3 314.38 286.62 314.38 C286.58 315.1 286.54 315.82 286.5 316.57 C285.24 320.61 282.95 321.81 279.62 324.38 C279.29 325.04 278.96 325.7 278.62 326.38 C277.3 326.38 275.98 326.38 274.62 326.38 C274.62 327.04 274.62 327.7 274.62 328.38 C266.59 330.71 259.27 331.82 250.92 331.76 C249.81 331.77 248.69 331.77 247.54 331.78 C243.84 331.79 240.15 331.78 236.45 331.77 C233.78 331.77 231.12 331.78 228.45 331.79 C221.99 331.8 215.52 331.8 209.05 331.79 C203.79 331.78 198.54 331.78 193.28 331.78 C192.15 331.78 192.15 331.78 191 331.78 C189.48 331.78 187.95 331.79 186.43 331.79 C172.16 331.8 157.89 331.79 143.62 331.77 C131.39 331.76 119.16 331.76 106.93 331.77 C92.7 331.79 78.48 331.79 64.25 331.79 C62.73 331.78 61.21 331.78 59.7 331.78 C58.95 331.78 58.2 331.78 57.43 331.78 C52.18 331.78 46.93 331.78 41.68 331.79 C35.28 331.8 28.88 331.8 22.48 331.78 C19.22 331.77 15.96 331.77 12.7 331.78 C9.15 331.79 5.61 331.78 2.07 331.76 C1.05 331.77 0.03 331.78 -1.03 331.78 C-9.42 331.71 -16.69 329.71 -24.38 326.38 C-24.38 325.72 -24.38 325.06 -24.38 324.38 C-25.04 324.38 -25.7 324.38 -26.38 324.38 C-26.38 323.72 -26.38 323.06 -26.38 322.38 C-26.99 322.12 -27.6 321.86 -28.22 321.58 C-33.52 318.63 -35.66 312.21 -37.5 306.7 C-40.58 295.52 -39.93 283.98 -39.88 272.47 C-39.88 269.86 -39.89 267.25 -39.9 264.63 C-39.91 258.3 -39.9 251.97 -39.89 245.64 C-39.87 238.25 -39.87 230.86 -39.88 223.47 C-39.88 210.29 -39.87 197.1 -39.85 183.91 C-39.82 171.14 -39.81 158.36 -39.83 145.59 C-39.84 131.65 -39.84 117.71 -39.82 103.77 C-39.82 102.28 -39.82 100.8 -39.82 99.31 C-39.82 98.21 -39.82 98.21 -39.82 97.09 C-39.81 91.95 -39.81 86.81 -39.82 81.67 C-39.82 74.74 -39.81 67.82 -39.79 60.89 C-39.79 58.35 -39.79 55.82 -39.79 53.28 C-39.8 49.81 -39.78 46.34 -39.77 42.87 C-39.78 41.37 -39.78 41.37 -39.79 39.85 C-39.68 28.31 -37.51 18.85 -29.38 10.38 C-25.09 6.38 -25.09 6.38 -21.38 6.38 C-21.05 5.39 -20.72 4.4 -20.38 3.38 C-14.11 -0.14 -6.98 -0.05 0 0 Z M97.62 94.38 C96.79 94.69 95.96 94.99 95.1 95.31 C93.27 95.98 91.44 96.68 89.62 97.38 C89.62 98.04 89.62 98.7 89.62 99.38 C88.9 99.65 88.18 99.92 87.43 100.19 C82.62 102.22 78.53 104.92 74.62 108.38 C74.62 109.04 74.62 109.7 74.62 110.38 C74.04 110.63 73.46 110.88 72.86 111.13 C70.29 112.57 68.78 114.16 66.87 116.38 C66.26 117.08 65.64 117.78 65.01 118.51 C63.42 120.26 63.42 120.26 63.62 122.38 C62.63 122.88 62.63 122.88 61.62 123.38 C60.14 125.8 58.77 128.2 57.43 130.69 C57.05 131.37 56.67 132.05 56.28 132.75 C54.13 136.47 54.13 136.47 54.02 140.61 C54.22 141.19 54.42 141.78 54.62 142.38 C53.96 142.38 53.3 142.38 52.62 142.38 C45.87 160.8 47.98 180.36 55.56 198.13 C58.83 206.38 58.83 206.38 64.62 212.38 C65.1 213.21 65.57 214.03 66.06 214.88 C67.43 217.67 67.43 217.67 70.62 218.38 C70.62 219.04 70.62 219.7 70.62 220.38 C71.28 220.38 71.94 220.38 72.62 220.38 C72.89 220.98 73.15 221.58 73.43 222.19 C76.95 228.66 83.89 231.81 90.37 234.63 C91.87 235.3 93.36 235.97 94.86 236.65 C95.83 237.08 95.83 237.08 96.83 237.51 C98.62 238.38 98.62 238.38 101.62 240.38 C109.72 242.65 118.08 242.77 126.43 242.76 C127.67 242.75 128.91 242.75 130.18 242.75 C138.99 242.63 146.44 241.83 154.62 238.38 C155.88 237.9 155.88 237.9 157.16 237.4 C161.73 235.53 165.86 233.13 169.99 230.43 C171.62 229.38 171.62 229.38 173.62 228.38 C175.27 226.8 176.89 225.19 178.5 223.57 C179.36 222.7 180.22 221.82 181.11 220.92 C181.94 220.08 182.77 219.25 183.62 218.38 C184.34 217.67 185.06 216.95 185.81 216.21 C189.79 212.19 193.62 208.24 193.62 202.38 C194.61 202.05 195.6 201.72 196.62 201.38 C196.95 199.07 197.28 196.76 197.62 194.38 C198.28 194.38 198.94 194.38 199.62 194.38 C200.08 192.79 200.54 191.19 200.98 189.59 C201.41 188.1 201.89 186.63 202.42 185.17 C208.44 167.1 204.33 148.31 196.06 131.76 C194.93 129.62 193.79 127.49 192.62 125.38 C192.18 124.58 191.74 123.78 191.28 122.96 C190.42 121.42 189.52 119.9 188.62 118.38 C187.96 118.38 187.3 118.38 186.62 118.38 C186.37 117.8 186.13 117.23 185.87 116.63 C184.44 114.05 182.84 112.32 180.62 110.38 C179.96 110.38 179.3 110.38 178.62 110.38 C178.39 109.8 178.17 109.23 177.93 108.63 C175.73 104.86 173.02 102.76 168.81 101.63 C167.73 101.51 167.73 101.51 166.62 101.38 C166.62 100.72 166.62 100.06 166.62 99.38 C147.33 85.41 118.68 86.46 97.62 94.38 Z " fill="#3C82F4" transform="translate(557.3791351318359,517.6190490722656)"/>
<path d="M0 0 C1.5 -0.02 1.5 -0.02 3.03 -0.04 C17.92 -0.07 26.43 4.04 38.31 12.81 C39.37 13.59 40.43 14.36 41.52 15.16 C42.32 15.83 43.12 16.5 43.94 17.19 C43.94 17.85 43.94 18.51 43.94 19.19 C45.92 19.68 45.92 19.68 47.94 20.19 C47.94 20.85 47.94 21.51 47.94 22.19 C48.6 22.19 49.26 22.19 49.94 22.19 C50.26 22.86 50.59 23.54 50.93 24.23 C51.36 25.13 51.8 26.02 52.25 26.94 C52.68 27.82 53.11 28.7 53.55 29.61 C54.84 32.17 54.84 32.17 56.47 34.18 C64.85 45.64 63.93 63.87 61.94 77.19 C60.09 85.06 57.01 92.82 51.94 99.19 C50.62 99.89 49.29 100.56 47.94 101.19 C47.29 103.21 47.29 103.21 46.94 105.19 C45.95 105.68 45.95 105.68 44.94 106.19 C44.28 107.18 43.62 108.17 42.94 109.19 C42.28 108.86 41.62 108.53 40.94 108.19 C40.44 109.67 40.44 109.67 39.94 111.19 C37.5 113.12 37.5 113.12 34.38 115.19 C33.36 115.87 32.35 116.55 31.31 117.25 C24.85 120.96 18.7 122.7 11.31 123.44 C10.14 123.56 10.14 123.56 8.95 123.68 C-6.98 125.15 -19.39 122.25 -33.06 114.19 C-33.99 113.67 -34.93 113.16 -35.89 112.62 C-36.6 112.15 -37.32 111.68 -38.06 111.19 C-38.06 110.53 -38.06 109.87 -38.06 109.19 C-38.66 108.91 -39.25 108.64 -39.86 108.36 C-50.23 102.84 -56.25 89.82 -59.56 79.06 C-62.41 66.97 -63.06 52.77 -58.06 41.19 C-57.76 40.38 -57.46 39.58 -57.14 38.75 C-56 36.05 -54.65 33.63 -53.12 31.12 C-52.62 30.29 -52.12 29.45 -51.6 28.59 C-50.17 26.36 -48.78 24.21 -47.06 22.19 C-46.4 22.19 -45.74 22.19 -45.06 22.19 C-45.06 21.53 -45.06 20.87 -45.06 20.19 C-44.4 20.19 -43.74 20.19 -43.06 20.19 C-43.06 19.53 -43.06 18.87 -43.06 18.19 C-42.4 18.19 -41.74 18.19 -41.06 18.19 C-41.06 17.53 -41.06 16.87 -41.06 16.19 C-40.4 16.19 -39.74 16.19 -39.06 16.19 C-38.79 15.55 -38.53 14.91 -38.25 14.25 C-37.06 12.19 -37.06 12.19 -34.06 11.19 C-33.73 10.53 -33.4 9.87 -33.06 9.19 C-31.74 9.19 -30.42 9.19 -29.06 9.19 C-28.73 8.2 -28.4 7.21 -28.06 6.19 C-25.76 5.17 -23.57 4.33 -21.19 3.56 C-20.55 3.35 -19.91 3.13 -19.25 2.91 C-17.53 2.32 -15.8 1.75 -14.06 1.19 C-9.45 -0.35 -4.83 0 0 0 Z M-14.06 44.19 C-14.06 44.85 -14.06 45.51 -14.06 46.19 C-14.72 46.19 -15.38 46.19 -16.06 46.19 C-16.72 47.84 -17.38 49.49 -18.06 51.19 C-18.72 51.19 -19.38 51.19 -20.06 51.19 C-21.83 54.99 -22.33 58 -22.31 62.19 C-22.32 63.2 -22.32 64.21 -22.33 65.25 C-22.06 68.26 -21.33 70.46 -20.06 73.19 C-19.4 73.19 -18.74 73.19 -18.06 73.19 C-18.06 73.85 -18.06 74.51 -18.06 75.19 C-17.4 75.85 -16.74 76.51 -16.06 77.19 C-15.3 78.01 -14.54 78.84 -13.75 79.69 C-9.34 83.79 -5.02 84.79 0.94 85.19 C6.37 84.5 11.21 83.02 15.94 80.19 C16.43 79.2 16.43 79.2 16.94 78.19 C17.6 77.86 18.26 77.53 18.94 77.19 C19.27 76.2 19.6 75.21 19.94 74.19 C20.43 73.75 20.93 73.32 21.44 72.88 C24.6 69.32 24.22 63.79 24.16 59.22 C23.78 55.74 22.63 53.25 20.94 50.19 C19.95 49.86 18.96 49.53 17.94 49.19 C17.44 46.71 17.44 46.71 16.94 44.19 C15.95 44.19 14.96 44.19 13.94 44.19 C13.01 43.23 13.01 43.23 12.06 42.25 C8.23 38.53 3.33 38.91 -1.78 38.96 C-6.51 39.43 -10.14 41.57 -14.06 44.19 Z " fill="#3C83F3" transform="translate(683.0625,621.8125)"/>
<path d="M0 0 C1.12 -0 2.23 -0.01 3.38 -0.01 C7.1 -0.03 10.82 -0.02 14.54 -0.01 C17.22 -0.01 19.89 -0.02 22.57 -0.02 C29.07 -0.04 35.57 -0.03 42.07 -0.02 C47.36 -0.02 52.64 -0.02 57.93 -0.02 C58.68 -0.02 59.44 -0.02 60.21 -0.02 C61.75 -0.02 63.28 -0.02 64.81 -0.02 C79.15 -0.03 93.5 -0.02 107.84 -0.01 C120.13 0.01 132.43 0 144.72 -0.01 C159.02 -0.03 173.31 -0.03 187.6 -0.02 C189.13 -0.02 190.65 -0.02 192.18 -0.02 C193.3 -0.02 193.3 -0.02 194.45 -0.02 C199.73 -0.02 205 -0.02 210.28 -0.03 C216.72 -0.04 223.15 -0.03 229.59 -0.02 C232.87 -0.01 236.15 -0.01 239.43 -0.02 C242.99 -0.03 246.55 -0.01 250.11 0 C251.14 -0.01 252.17 -0.01 253.23 -0.02 C259.8 0.03 268.24 0.15 273.27 4.95 C273.71 5.42 274.16 5.9 274.62 6.38 C275.32 6.55 276.02 6.71 276.75 6.88 C277.36 7.05 277.98 7.21 278.62 7.38 C278.95 8.37 279.28 9.36 279.62 10.38 C280.38 11.14 281.15 11.91 281.93 12.69 C289.41 20.17 291.94 28.34 292.02 38.7 C292.02 39.74 292.01 40.77 292 41.84 C292.01 42.97 292.01 44.09 292.02 45.25 C292.03 49 292.02 52.75 292.01 56.5 C292.01 59.2 292.02 61.9 292.02 64.59 C292.04 71.15 292.04 77.7 292.03 84.25 C292.02 89.58 292.02 94.91 292.02 100.23 C292.02 100.99 292.02 101.75 292.02 102.54 C292.02 104.08 292.03 105.62 292.03 107.16 C292.04 121.62 292.03 136.07 292.01 150.53 C292 162.92 292 175.31 292.01 187.7 C292.03 202.11 292.03 216.51 292.03 230.92 C292.02 232.45 292.02 233.99 292.02 235.53 C292.02 236.28 292.02 237.04 292.02 237.82 C292.02 243.14 292.02 248.46 292.03 253.78 C292.04 260.26 292.04 266.75 292.02 273.23 C292.01 276.54 292.01 279.84 292.02 283.15 C292.03 286.74 292.02 290.33 292 293.92 C292.01 294.96 292.02 295.99 292.02 297.06 C291.97 303.36 291.02 308.55 288.62 314.38 C287.96 314.38 287.3 314.38 286.62 314.38 C286.58 315.1 286.54 315.82 286.5 316.57 C285.24 320.61 282.95 321.81 279.62 324.38 C279.29 325.04 278.96 325.7 278.62 326.38 C277.3 326.38 275.98 326.38 274.62 326.38 C274.62 327.04 274.62 327.7 274.62 328.38 C266.59 330.71 259.27 331.82 250.92 331.76 C249.81 331.77 248.69 331.77 247.54 331.78 C243.84 331.79 240.15 331.78 236.45 331.77 C233.78 331.77 231.12 331.78 228.45 331.79 C221.99 331.8 215.52 331.8 209.05 331.79 C203.79 331.78 198.54 331.78 193.28 331.78 C192.15 331.78 192.15 331.78 191 331.78 C189.48 331.78 187.95 331.79 186.43 331.79 C172.16 331.8 157.89 331.79 143.62 331.77 C131.39 331.76 119.16 331.76 106.93 331.77 C92.7 331.79 78.48 331.79 64.25 331.79 C62.73 331.78 61.21 331.78 59.7 331.78 C58.95 331.78 58.2 331.78 57.43 331.78 C52.18 331.78 46.93 331.78 41.68 331.79 C35.28 331.8 28.88 331.8 22.48 331.78 C19.22 331.77 15.96 331.77 12.7 331.78 C9.15 331.79 5.61 331.78 2.07 331.76 C1.05 331.77 0.03 331.78 -1.03 331.78 C-9.42 331.71 -16.69 329.71 -24.38 326.38 C-24.38 325.72 -24.38 325.06 -24.38 324.38 C-25.04 324.38 -25.7 324.38 -26.38 324.38 C-26.38 323.72 -26.38 323.06 -26.38 322.38 C-26.99 322.12 -27.6 321.86 -28.22 321.58 C-33.52 318.63 -35.66 312.21 -37.5 306.7 C-40.58 295.52 -39.93 283.98 -39.88 272.47 C-39.88 269.86 -39.89 267.25 -39.9 264.63 C-39.91 258.3 -39.9 251.97 -39.89 245.64 C-39.87 238.25 -39.87 230.86 -39.88 223.47 C-39.88 210.29 -39.87 197.1 -39.85 183.91 C-39.82 171.14 -39.81 158.36 -39.83 145.59 C-39.84 131.65 -39.84 117.71 -39.82 103.77 C-39.82 102.28 -39.82 100.8 -39.82 99.31 C-39.82 98.21 -39.82 98.21 -39.82 97.09 C-39.81 91.95 -39.81 86.81 -39.82 81.67 C-39.82 74.74 -39.81 67.82 -39.79 60.89 C-39.79 58.35 -39.79 55.82 -39.79 53.28 C-39.8 49.81 -39.78 46.34 -39.77 42.87 C-39.78 41.37 -39.78 41.37 -39.79 39.85 C-39.68 28.31 -37.51 18.85 -29.38 10.38 C-25.09 6.38 -25.09 6.38 -21.38 6.38 C-21.05 5.39 -20.72 4.4 -20.38 3.38 C-14.11 -0.14 -6.98 -0.05 0 0 Z M-15.38 4.38 C-15.38 5.04 -15.38 5.7 -15.38 6.38 C-16.1 6.48 -16.82 6.59 -17.57 6.69 C-23.47 8.14 -26.99 11.48 -30.38 16.38 C-30.89 17.06 -31.39 17.73 -31.92 18.43 C-38.75 29.4 -37.2 42.18 -37.12 54.63 C-37.13 57.3 -37.14 59.98 -37.15 62.65 C-37.16 69.14 -37.15 75.62 -37.13 82.11 C-37.1 89.68 -37.1 97.24 -37.11 104.81 C-37.11 118.31 -37.09 131.82 -37.05 145.32 C-37.01 158.4 -37 171.49 -37.01 184.57 C-37.02 198.84 -37.02 213.12 -37 227.39 C-37 228.91 -36.99 230.44 -36.99 231.96 C-36.99 232.71 -36.99 233.46 -36.99 234.23 C-36.98 239.5 -36.98 244.76 -36.99 250.03 C-36.99 256.45 -36.98 262.87 -36.95 269.29 C-36.94 272.56 -36.93 275.84 -36.94 279.11 C-36.94 282.66 -36.92 286.22 -36.9 289.77 C-36.91 290.8 -36.92 291.82 -36.92 292.87 C-36.8 303.13 -33.78 312.98 -26.38 320.38 C-23.71 321.93 -23.71 321.93 -21.38 322.38 C-21.38 323.04 -21.38 323.7 -21.38 324.38 C-9.86 331.58 3.44 330.07 16.49 330 C19.12 330 21.75 330.01 24.38 330.01 C30.77 330.03 37.16 330.02 43.55 329.99 C51 329.97 58.45 329.97 65.9 329.97 C79.2 329.98 92.5 329.96 105.8 329.92 C118.68 329.89 131.56 329.88 144.45 329.88 C158.5 329.89 172.56 329.89 186.61 329.87 C187.73 329.87 187.73 329.87 188.87 329.86 C190.36 329.86 191.86 329.86 193.35 329.86 C198.53 329.85 203.72 329.85 208.9 329.85 C215.23 329.85 221.55 329.84 227.87 329.82 C231.09 329.81 234.32 329.8 237.54 329.81 C241.04 329.81 244.54 329.79 248.05 329.78 C249.55 329.78 249.55 329.78 251.09 329.79 C258.69 329.72 266.73 328.83 273.62 325.38 C273.62 324.72 273.62 324.06 273.62 323.38 C274.71 323.13 275.81 322.89 276.93 322.63 C280.59 321.68 280.59 321.68 282.62 319.44 C283.97 317.27 283.97 317.27 282.62 314.38 C283.61 314.38 284.6 314.38 285.62 314.38 C291.1 301.95 290.22 288.9 290.21 275.6 C290.23 272.99 290.24 270.38 290.26 267.76 C290.3 261.43 290.31 255.1 290.32 248.77 C290.34 241.4 290.37 234.02 290.4 226.64 C290.45 213.47 290.49 200.3 290.51 187.14 C290.54 174.37 290.58 161.61 290.64 148.84 C290.7 134.92 290.76 121 290.8 107.07 C290.8 105.59 290.8 104.1 290.81 102.62 C290.81 101.89 290.81 101.16 290.82 100.41 C290.83 95.27 290.85 90.13 290.88 84.99 C290.91 78.07 290.92 71.15 290.93 64.24 C290.93 61.7 290.94 59.16 290.95 56.62 C290.97 53.16 290.97 49.7 290.97 46.23 C290.98 45.23 290.99 44.22 291 43.19 C290.97 37.41 290.2 33.54 287.62 28.38 C287.22 26.39 286.87 24.39 286.62 22.38 C285.96 22.38 285.3 22.38 284.62 22.38 C284.28 21.33 284.28 21.33 283.93 20.26 C280.95 13.71 276.36 10.36 270.62 6.38 C270.29 5.72 269.96 5.06 269.62 4.38 C267.64 4.38 265.66 4.38 263.62 4.38 C263.62 3.72 263.62 3.06 263.62 2.38 C228.94 2.34 194.27 2.3 159.59 2.28 C155.5 2.28 151.41 2.27 147.31 2.27 C146.09 2.27 146.09 2.27 144.84 2.27 C131.65 2.26 118.45 2.25 105.25 2.23 C91.71 2.21 78.17 2.2 64.63 2.19 C56.28 2.19 47.92 2.18 39.56 2.17 C33.83 2.15 28.11 2.15 22.38 2.15 C19.07 2.16 15.77 2.15 12.46 2.14 C8.88 2.13 5.29 2.13 1.71 2.14 C0.66 2.13 -0.38 2.13 -1.46 2.12 C-6.5 2.14 -10.66 2.37 -15.38 4.38 Z " fill="#408DE4" transform="translate(557.3791351318359,517.6190490722656)"/>
<path d="M0 0 C1.1 -0 2.2 -0.01 3.33 -0.01 C7 -0.02 10.66 -0.01 14.33 -0 C16.96 -0.01 19.6 -0.01 22.24 -0.02 C28.64 -0.02 35.05 -0.02 41.45 -0.02 C46.66 -0.01 51.87 -0.01 57.07 -0.01 C57.82 -0.01 58.56 -0.01 59.32 -0.01 C60.83 -0.02 62.34 -0.02 63.85 -0.02 C77.98 -0.02 92.11 -0.02 106.25 -0 C118.36 0 130.47 0 142.58 -0.01 C156.67 -0.02 170.75 -0.02 184.83 -0.02 C186.33 -0.01 187.83 -0.01 189.34 -0.01 C190.45 -0.01 190.45 -0.01 191.58 -0.01 C196.78 -0.01 201.97 -0.01 207.17 -0.02 C213.51 -0.02 219.85 -0.02 226.19 -0.01 C229.42 -0.01 232.66 -0.01 235.89 -0.01 C239.4 -0.02 242.91 -0.01 246.42 0 C247.43 -0 248.44 -0.01 249.48 -0.01 C255.8 0.02 261.63 0.78 267.77 2.25 C268.1 4.23 268.43 6.21 268.77 8.25 C268.05 7.95 267.33 7.64 266.59 7.32 C258.51 4.26 250.03 3.96 241.48 4.03 C240.39 4.03 239.31 4.03 238.2 4.03 C234.6 4.04 231 4.05 227.4 4.07 C224.81 4.08 222.22 4.08 219.63 4.09 C213.34 4.1 207.05 4.12 200.76 4.15 C195.64 4.17 190.52 4.18 185.41 4.2 C184.68 4.2 183.95 4.2 183.19 4.21 C181.71 4.21 180.23 4.22 178.74 4.22 C164.85 4.26 150.96 4.32 137.06 4.38 C124.38 4.43 111.69 4.47 99 4.5 C85.95 4.53 72.9 4.57 59.84 4.62 C52.52 4.65 45.21 4.68 37.89 4.69 C31 4.7 24.12 4.73 17.24 4.77 C14.72 4.78 12.2 4.79 9.68 4.79 C-10.28 3.82 -10.28 3.82 -28.29 10.63 C-28.93 11.5 -29.57 12.36 -30.23 13.25 C-30.91 13.96 -31.59 14.66 -32.29 15.38 C-37.62 23.28 -38.82 31.56 -38.72 40.89 C-38.73 42.01 -38.73 43.13 -38.74 44.29 C-38.75 48.01 -38.73 51.73 -38.71 55.45 C-38.72 58.13 -38.72 60.81 -38.72 63.49 C-38.73 70 -38.72 76.5 -38.7 83.01 C-38.68 90.59 -38.68 98.17 -38.69 105.75 C-38.69 119.28 -38.67 132.81 -38.64 146.34 C-38.61 159.46 -38.6 172.57 -38.6 185.69 C-38.6 186.5 -38.6 187.31 -38.6 188.14 C-38.6 188.95 -38.6 189.76 -38.6 190.59 C-38.6 205.54 -38.59 220.49 -38.57 235.45 C-38.56 240.73 -38.56 246.01 -38.56 251.29 C-38.56 257.73 -38.55 264.16 -38.53 270.6 C-38.52 273.88 -38.52 277.16 -38.52 280.44 C-38.52 284 -38.51 287.56 -38.49 291.12 C-38.5 292.16 -38.5 293.19 -38.5 294.26 C-38.52 303.56 -38.52 303.56 -34.23 311.5 C-33.57 312.08 -32.91 312.66 -32.23 313.25 C-30.08 316.48 -30.03 317.54 -30.23 321.25 C-37.66 314.02 -41.21 306.22 -41.6 295.82 C-41.62 293.83 -41.62 291.83 -41.61 289.84 C-41.61 288.73 -41.62 287.62 -41.62 286.48 C-41.63 282.79 -41.62 279.1 -41.62 275.42 C-41.62 272.76 -41.62 270.11 -41.63 267.46 C-41.64 261.01 -41.64 254.56 -41.63 248.12 C-41.63 242.88 -41.63 237.63 -41.63 232.39 C-41.63 231.64 -41.63 230.9 -41.63 230.13 C-41.63 228.61 -41.63 227.09 -41.63 225.57 C-41.64 211.34 -41.63 197.12 -41.62 182.89 C-41.6 170.7 -41.6 158.51 -41.62 146.32 C-41.63 132.14 -41.64 117.97 -41.63 103.79 C-41.63 102.28 -41.63 100.76 -41.63 99.25 C-41.63 98.5 -41.63 97.76 -41.63 96.99 C-41.62 91.76 -41.63 86.53 -41.64 81.3 C-41.64 74.92 -41.64 68.54 -41.63 62.16 C-41.62 58.9 -41.62 55.65 -41.63 52.4 C-41.63 48.87 -41.62 45.33 -41.61 41.8 C-41.61 40.78 -41.62 39.77 -41.63 38.72 C-41.56 30.43 -40.16 22.62 -36.23 15.25 C-35.57 15.25 -34.91 15.25 -34.23 15.25 C-33.9 14.26 -33.57 13.27 -33.23 12.25 C-31.7 10.72 -31.7 10.72 -29.85 9.19 C-29.25 8.68 -28.64 8.18 -28.02 7.66 C-23.68 4.25 -23.68 4.25 -20.23 4.25 C-20.23 3.59 -20.23 2.93 -20.23 2.25 C-13.35 0.47 -7.09 -0.03 0 0 Z " fill="#3ABD5B" transform="translate(560.2272796630859,173.74603271484375)"/>
<path d="M0 0 C0.97 0.01 1.93 0.01 2.93 0.02 C14.67 0.43 25.66 4.59 36 10 C36 10.66 36 11.32 36 12 C36.72 12.06 37.44 12.12 38.19 12.19 C41.16 13.05 42.36 14.09 44.4 16.34 C47.34 19.4 50.67 22.06 53.89 24.82 C56.07 27.08 56.36 28.06 57 31 C57.99 31.33 58.98 31.66 60 32 C73.35 47.68 75.96 68.25 75 88 C74.93 89.54 74.93 89.54 74.87 91.11 C73.83 105.68 66.23 121.77 56 132 C55.57 132.8 55.13 133.61 54.69 134.44 C51.92 138.64 47.62 142.22 42.75 143.67 C42.17 143.78 41.59 143.89 41 144 C41 144.66 41 145.32 41 146 C39.35 146.66 37.7 147.32 36 148 C36 148.66 36 149.32 36 150 C29.99 153.37 24.01 155.28 17.37 157.07 C14.05 157.94 14.05 157.94 11.08 159.07 C7.35 160.19 3.74 160.54 -0.12 160.75 C-1.25 160.81 -1.25 160.81 -2.39 160.88 C-8.81 161.15 -14.73 160.42 -21 159 C-22.21 158.78 -22.21 158.78 -23.45 158.56 C-28.12 157.68 -31.9 156.2 -36.07 153.95 C-38.02 152.99 -39.85 152.41 -41.94 151.88 C-43.45 151.44 -43.45 151.44 -45 151 C-45.33 150.34 -45.66 149.68 -46 149 C-48.02 147.87 -48.02 147.87 -50 147 C-50 146.34 -50 145.68 -50 145 C-50.72 144.75 -51.44 144.5 -52.19 144.25 C-58.39 141.49 -62.97 136.37 -67 131 C-67 130.34 -67 129.68 -67 129 C-67.66 129 -68.32 129 -69 129 C-70.62 127.75 -70.62 127.75 -72 126 C-72 124.68 -72 123.36 -72 122 C-72.99 121.67 -73.98 121.34 -75 121 C-83.56 109.82 -85.44 92.36 -85.5 78.81 C-85.51 77.87 -85.51 76.93 -85.52 75.95 C-85.42 70.54 -84.64 66 -82.71 60.94 C-81.76 58.34 -81.35 55.73 -81 53 C-80.34 53 -79.68 53 -79 53 C-78.94 51.85 -78.88 50.69 -78.81 49.5 C-78.22 44.58 -76.08 40.84 -73 37 C-72.01 36.5 -72.01 36.5 -71 36 C-71 35.01 -71 34.02 -71 33 C-70.34 33 -69.68 33 -69 33 C-69 32.34 -69 31.68 -69 31 C-67.36 29.31 -65.69 27.65 -64 26 C-63.48 25.3 -62.97 24.6 -62.44 23.88 C-60.81 21.76 -59.16 20.56 -57 19 C-56.09 18.11 -55.18 17.23 -54.25 16.31 C-39.51 3.69 -18.87 -0.54 0 0 Z M-34 8 C-34.83 8.31 -35.67 8.61 -36.52 8.93 C-38.35 9.6 -40.18 10.3 -42 11 C-42 11.66 -42 12.32 -42 13 C-42.72 13.27 -43.44 13.54 -44.19 13.81 C-49 15.84 -53.09 18.54 -57 22 C-57 22.66 -57 23.32 -57 24 C-57.58 24.25 -58.17 24.5 -58.77 24.75 C-61.33 26.19 -62.84 27.78 -64.75 30 C-65.36 30.7 -65.98 31.4 -66.61 32.12 C-68.2 33.88 -68.2 33.88 -68 36 C-68.99 36.5 -68.99 36.5 -70 37 C-71.48 39.42 -72.85 41.82 -74.19 44.31 C-74.57 44.99 -74.95 45.67 -75.34 46.37 C-77.49 50.09 -77.49 50.09 -77.6 54.23 C-77.4 54.81 -77.2 55.4 -77 56 C-77.66 56 -78.32 56 -79 56 C-85.75 74.42 -83.64 93.98 -76.06 111.75 C-72.79 120 -72.79 120 -67 126 C-66.53 126.83 -66.05 127.65 -65.56 128.5 C-64.19 131.29 -64.19 131.29 -61 132 C-61 132.66 -61 133.32 -61 134 C-60.34 134 -59.68 134 -59 134 C-58.73 134.6 -58.47 135.2 -58.19 135.81 C-54.67 142.28 -47.73 145.42 -41.25 148.25 C-39.75 148.92 -38.26 149.59 -36.77 150.27 C-35.79 150.7 -35.79 150.7 -34.79 151.13 C-33 152 -33 152 -30 154 C-21.9 156.27 -13.54 156.39 -5.19 156.38 C-3.95 156.37 -2.72 156.37 -1.44 156.37 C7.37 156.25 14.82 155.45 23 152 C24.26 151.51 24.26 151.51 25.54 151.02 C30.11 149.15 34.24 146.75 38.37 144.05 C40 143 40 143 42 142 C43.65 140.42 45.27 138.81 46.88 137.19 C47.74 136.31 48.6 135.44 49.49 134.54 C50.32 133.7 51.15 132.86 52 132 C52.72 131.28 53.44 130.57 54.19 129.83 C58.17 125.81 62 121.86 62 116 C62.99 115.67 63.98 115.34 65 115 C65.33 112.69 65.66 110.38 66 108 C66.66 108 67.32 108 68 108 C68.46 106.41 68.92 104.81 69.36 103.21 C69.79 101.72 70.27 100.25 70.8 98.79 C76.82 80.72 72.71 61.93 64.44 45.38 C63.31 43.24 62.17 41.11 61 39 C60.56 38.2 60.12 37.4 59.66 36.58 C58.8 35.04 57.9 33.52 57 32 C56.34 32 55.68 32 55 32 C54.75 31.42 54.5 30.85 54.25 30.25 C52.82 27.67 51.22 25.94 49 24 C48.34 24 47.68 24 47 24 C46.77 23.42 46.55 22.85 46.31 22.25 C44.11 18.48 41.4 16.37 37.19 15.25 C36.1 15.13 36.1 15.13 35 15 C35 14.34 35 13.68 35 13 C15.71 -0.97 -12.94 0.08 -34 8 Z " fill="#4592EB" transform="translate(689,604)"/>
<path d="M0 0 C0.99 0.33 1.98 0.66 3 1 C3 1.66 3 2.32 3 3 C3.64 3.12 4.28 3.25 4.94 3.38 C5.62 3.58 6.3 3.79 7 4 C7.33 4.66 7.66 5.32 8 6 C7.67 6.66 7.34 7.32 7 8 C8.32 8.33 9.64 8.66 11 9 C11 9.99 11 10.98 11 12 C11.66 12 12.32 12 13 12 C14.35 14.71 14.07 17.01 14 20 C14.66 20 15.32 20 16 20 C16.05 55.57 16.08 91.14 16.1 126.7 C16.1 130.9 16.11 135.1 16.11 139.3 C16.11 140.14 16.11 140.97 16.11 141.83 C16.12 155.37 16.14 168.91 16.15 182.44 C16.17 196.33 16.18 210.22 16.19 224.11 C16.19 232.68 16.2 241.25 16.22 249.82 C16.23 255.69 16.23 261.57 16.23 267.45 C16.23 270.84 16.23 274.23 16.24 277.62 C16.25 281.3 16.25 284.97 16.24 288.65 C16.25 289.72 16.25 290.79 16.26 291.9 C16.22 301.55 16.22 301.55 14 306 C12.7 307.04 11.37 308.04 10 309 C10.14 308.34 10.28 307.68 10.43 307.01 C11.83 300.01 12.28 293.36 12.25 286.23 C12.25 285.1 12.25 283.97 12.25 282.8 C12.26 279.03 12.25 275.26 12.24 271.49 C12.24 268.78 12.25 266.07 12.25 263.36 C12.25 256.77 12.25 250.19 12.24 243.6 C12.23 235.93 12.23 228.26 12.23 220.59 C12.23 206.9 12.22 193.21 12.21 179.52 C12.19 166.25 12.18 152.97 12.19 139.69 C12.19 138.87 12.19 138.06 12.19 137.21 C12.19 136.39 12.19 135.58 12.19 134.74 C12.19 119.61 12.18 104.48 12.17 89.35 C12.17 84 12.17 78.65 12.17 73.31 C12.17 66.79 12.16 60.28 12.15 53.77 C12.15 50.45 12.15 47.13 12.15 43.8 C12.15 40.2 12.14 36.6 12.13 33.01 C12.14 31.95 12.14 30.9 12.14 29.82 C12.14 28.85 12.13 27.89 12.13 26.89 C12.13 25.65 12.13 25.65 12.13 24.38 C11.99 21.84 11.56 19.48 11 17 C10.34 17 9.68 17 9 17 C8.78 16.48 8.56 15.96 8.34 15.43 C5.98 10.24 3.61 7.35 -1 4 C-0.67 2.68 -0.34 1.36 0 0 Z " fill="#EE7A3D" transform="translate(489,180)"/>
<path d="M0 0 C0.23 0.56 0.45 1.11 0.69 1.69 C2.36 4.63 4.55 6.68 7 9 C6.67 9.99 6.34 10.98 6 12 C6.66 12.33 7.32 12.66 8 13 C10.14 16.21 10.25 17.03 10.25 20.72 C10.26 21.7 10.27 22.67 10.27 23.68 C10.27 24.75 10.26 25.83 10.26 26.94 C10.26 28.08 10.27 29.22 10.27 30.39 C10.28 33.56 10.28 36.73 10.28 39.9 C10.27 43.32 10.28 46.74 10.29 50.15 C10.3 56.85 10.3 63.55 10.3 70.25 C10.3 75.69 10.3 81.14 10.31 86.58 C10.31 87.75 10.31 87.75 10.31 88.93 C10.31 90.5 10.31 92.08 10.31 93.65 C10.32 108.41 10.32 123.18 10.31 137.94 C10.31 151.44 10.32 164.95 10.34 178.45 C10.36 192.31 10.37 206.18 10.36 220.04 C10.36 227.82 10.36 235.61 10.38 243.39 C10.39 250.02 10.39 256.65 10.38 263.28 C10.37 266.66 10.37 270.04 10.38 273.42 C10.39 277.09 10.39 280.76 10.37 284.43 C10.38 285.49 10.39 286.56 10.4 287.65 C10.35 294.66 9.15 299.7 6 306 C5.34 306 4.68 306 4 306 C4.88 300.25 4.88 300.25 6 298 C6.1 296.48 6.13 294.96 6.13 293.43 C6.14 291.98 6.14 291.98 6.14 290.5 C6.14 288.9 6.14 288.9 6.14 287.26 C6.14 286.13 6.15 285 6.15 283.83 C6.16 280.01 6.16 276.2 6.16 272.38 C6.17 269.65 6.17 266.93 6.18 264.2 C6.19 256.78 6.2 249.35 6.2 241.92 C6.2 237.29 6.21 232.65 6.21 228.02 C6.22 215.18 6.23 202.35 6.24 189.51 C6.24 188.69 6.24 187.87 6.24 187.02 C6.24 186.2 6.24 185.37 6.24 184.52 C6.24 182.85 6.24 181.18 6.24 179.51 C6.24 178.69 6.24 177.86 6.24 177 C6.24 163.59 6.26 150.18 6.29 136.77 C6.31 123 6.32 109.23 6.32 95.46 C6.32 87.73 6.33 80 6.35 72.27 C6.36 65.68 6.37 59.1 6.36 52.51 C6.36 49.15 6.36 45.8 6.37 42.44 C6.38 38.79 6.38 35.15 6.37 31.5 C6.38 30.45 6.38 29.39 6.39 28.3 C6.35 22.13 5.45 17.66 3 12 C3 11.34 3 10.68 3 10 C2.34 10 1.68 10 1 10 C1 9.34 1 8.68 1 8 C0.34 8 -0.32 8 -1 8 C-3.12 6.12 -3.12 6.12 -5 4 C-5 3.34 -5 2.68 -5 2 C-4.36 1.86 -3.72 1.71 -3.06 1.56 C-1.02 1.19 -1.02 1.19 0 0 Z " fill="#EDC831" transform="translate(495,528)"/>
<path d="M0 0 C-1.29 0.67 -2.58 1.34 -3.88 2 C-4.59 2.37 -5.31 2.74 -6.05 3.12 C-8 4 -8 4 -10 4 C-10.66 5.32 -11.32 6.64 -12 8 C-12.66 8 -13.32 8 -14 8 C-14.25 8.64 -14.5 9.28 -14.75 9.94 C-16 13 -16 13 -16.98 14.87 C-20.13 21.11 -20.57 26.42 -20.51 33.35 C-20.52 34.46 -20.53 35.57 -20.54 36.71 C-20.55 40.42 -20.54 44.13 -20.53 47.84 C-20.54 50.51 -20.55 53.18 -20.56 55.84 C-20.58 62.33 -20.58 68.81 -20.57 75.29 C-20.57 80.57 -20.57 85.84 -20.57 91.12 C-20.58 91.87 -20.58 92.62 -20.58 93.39 C-20.58 94.92 -20.58 96.45 -20.58 97.98 C-20.6 112.3 -20.59 126.62 -20.57 140.94 C-20.56 154.01 -20.57 167.09 -20.6 180.16 C-20.63 193.61 -20.64 207.06 -20.63 220.51 C-20.63 222.03 -20.63 223.56 -20.63 225.08 C-20.63 225.83 -20.63 226.58 -20.63 227.35 C-20.63 232.61 -20.64 237.87 -20.65 243.13 C-20.67 249.55 -20.67 255.98 -20.65 262.4 C-20.63 265.67 -20.63 268.94 -20.65 272.21 C-20.71 285.83 -20.4 297.37 -15 310 C-14.63 311.32 -14.28 312.66 -14 314 C-17.58 310.88 -19.06 307.99 -20.69 303.56 C-21.1 302.45 -21.52 301.34 -21.95 300.19 C-23.39 295.82 -24.12 291.84 -24.13 287.25 C-24.14 286.32 -24.14 285.38 -24.14 284.42 C-24.14 282.9 -24.14 282.9 -24.14 281.34 C-24.14 280.26 -24.15 279.17 -24.15 278.05 C-24.16 274.41 -24.16 270.76 -24.16 267.11 C-24.17 264.5 -24.17 261.89 -24.18 259.28 C-24.19 252.18 -24.2 245.07 -24.2 237.97 C-24.2 233.54 -24.21 229.1 -24.21 224.66 C-24.22 212.36 -24.23 200.07 -24.24 187.77 C-24.24 186.99 -24.24 186.2 -24.24 185.39 C-24.24 184.6 -24.24 183.81 -24.24 183 C-24.24 181.4 -24.24 179.8 -24.24 178.21 C-24.24 177.41 -24.24 176.62 -24.24 175.81 C-24.24 162.97 -24.26 150.14 -24.29 137.31 C-24.31 124.13 -24.32 110.94 -24.32 97.76 C-24.32 90.36 -24.33 82.96 -24.35 75.56 C-24.36 68.6 -24.37 61.64 -24.36 54.68 C-24.36 52.12 -24.36 49.57 -24.37 47.02 C-24.38 43.53 -24.38 40.04 -24.37 36.55 C-24.38 35.55 -24.38 34.54 -24.39 33.51 C-24.31 21.95 -22.13 12.49 -14 4 C-9.47 -0.31 -6.04 -1.67 0 0 Z " fill="#659DD0" transform="translate(542,524)"/>
<path d="M0 0 C1.44 -0 1.44 -0 2.9 -0.01 C4.48 -0 4.48 -0 6.09 0 C7.21 0 8.33 0 9.48 0 C13.24 -0 17.01 0 20.77 0.01 C23.46 0.01 26.15 0.01 28.84 0.01 C34.64 0.01 40.44 0.01 46.24 0.02 C54.63 0.03 63.02 0.03 71.41 0.03 C85.02 0.03 98.62 0.04 112.23 0.05 C125.45 0.06 138.67 0.06 151.89 0.07 C152.71 0.07 153.52 0.07 154.36 0.07 C158.45 0.07 162.54 0.07 166.62 0.07 C200.54 0.08 234.45 0.1 268.37 0.12 C268.37 0.78 268.37 1.44 268.37 2.12 C270.35 2.12 272.33 2.12 274.37 2.12 C274.37 2.78 274.37 3.44 274.37 4.12 C273.71 4.05 273.05 3.98 272.37 3.91 C265.44 3.21 258.61 2.98 251.64 3 C250.51 3 249.39 3 248.22 3 C244.47 3 240.72 3 236.97 3.01 C234.27 3.01 231.56 3.01 228.86 3.01 C223.06 3.01 217.26 3.01 211.46 3.02 C203.07 3.03 194.69 3.03 186.3 3.03 C172.69 3.03 159.08 3.04 145.47 3.05 C132.26 3.06 119.04 3.06 105.83 3.07 C105.01 3.07 104.2 3.07 103.36 3.07 C99.27 3.07 95.17 3.07 91.08 3.07 C57.18 3.08 23.27 3.1 -10.63 3.12 C-6.89 0.63 -4.39 -0 0 0 Z " fill="#3E88E7" transform="translate(552.6326856613159,519.8769521713257)"/>
<path d="M0 0 C0.66 0 1.32 0 2 0 C1.67 1.65 1.34 3.3 1 5 C1.66 4.67 2.32 4.34 3 4 C2.42 7.34 1.41 8.69 -1 11 C-1.33 11.99 -1.66 12.98 -2 14 C-4.29 15.75 -4.29 15.75 -7.19 17.56 C-8.13 18.16 -9.07 18.76 -10.04 19.38 C-16.86 23.11 -22.74 23.28 -30.35 23.24 C-31.5 23.24 -32.65 23.24 -33.83 23.25 C-37.01 23.25 -40.19 23.24 -43.37 23.23 C-46.8 23.22 -50.23 23.23 -53.66 23.23 C-59.6 23.23 -65.55 23.22 -71.49 23.21 C-80.08 23.2 -88.67 23.19 -97.26 23.19 C-111.2 23.18 -125.14 23.17 -139.08 23.15 C-152.62 23.13 -166.16 23.12 -179.7 23.11 C-180.95 23.11 -180.95 23.11 -182.23 23.11 C-186.42 23.11 -190.61 23.1 -194.79 23.1 C-229.53 23.08 -264.26 23.04 -299 23 C-299 22.34 -299 21.68 -299 21 C-299.76 21.1 -300.53 21.21 -301.31 21.31 C-302.2 21.21 -303.09 21.11 -304 21 C-305.88 18.62 -305.88 18.62 -307 16 C-306.67 15.34 -306.34 14.68 -306 14 C-304.34 14.98 -302.68 15.95 -301.02 16.93 C-300.35 17.28 -299.69 17.64 -299 18 C-298.35 18.35 -297.71 18.69 -297.04 19.05 C-292.48 20.48 -288.04 20.27 -283.28 20.25 C-281.65 20.26 -281.65 20.26 -279.97 20.26 C-276.31 20.27 -272.64 20.27 -268.97 20.26 C-266.35 20.26 -263.72 20.27 -261.09 20.27 C-254.7 20.28 -248.3 20.28 -241.9 20.27 C-236.7 20.27 -231.49 20.27 -226.29 20.27 C-225.18 20.27 -225.18 20.27 -224.05 20.27 C-222.54 20.27 -221.04 20.27 -219.53 20.27 C-205.42 20.28 -191.31 20.27 -177.2 20.26 C-165.1 20.25 -153 20.25 -140.91 20.26 C-126.85 20.27 -112.8 20.28 -98.74 20.27 C-97.24 20.27 -95.74 20.27 -94.24 20.27 C-93.51 20.27 -92.77 20.27 -92.01 20.27 C-86.82 20.26 -81.62 20.27 -76.43 20.27 C-70.1 20.28 -63.76 20.28 -57.43 20.27 C-54.2 20.26 -50.97 20.26 -47.74 20.27 C-44.24 20.27 -40.73 20.26 -37.22 20.25 C-35.7 20.26 -35.7 20.26 -34.15 20.27 C-23.08 20.21 -13.75 18.12 -5.33 10.48 C-2.49 7.31 -1.07 4.09 0 0 Z " fill="#FB8736" transform="translate(499,482)"/>
<path d="M0 0 C0 0.33 0 0.66 0 1 C-4.2 2.57 -7.77 3.23 -12.25 3.38 C-19.83 3.88 -26.02 5.47 -31.88 10.44 C-32.58 11.28 -33.28 12.13 -34 13 C-34.68 13.7 -35.36 14.4 -36.06 15.12 C-41.39 23.03 -42.59 31.31 -42.49 40.64 C-42.5 41.76 -42.5 42.88 -42.51 44.03 C-42.52 47.75 -42.5 51.48 -42.49 55.2 C-42.49 57.88 -42.49 60.56 -42.5 63.24 C-42.51 69.74 -42.5 76.25 -42.48 82.75 C-42.46 90.34 -42.46 97.92 -42.46 105.5 C-42.46 119.03 -42.44 132.56 -42.41 146.08 C-42.38 159.2 -42.37 172.32 -42.37 185.44 C-42.37 186.25 -42.37 187.06 -42.37 187.89 C-42.37 188.7 -42.37 189.5 -42.37 190.33 C-42.37 205.29 -42.36 220.24 -42.34 235.19 C-42.34 240.47 -42.33 245.76 -42.33 251.04 C-42.33 257.47 -42.32 263.91 -42.31 270.34 C-42.3 273.63 -42.29 276.91 -42.29 280.19 C-42.29 283.75 -42.28 287.31 -42.27 290.87 C-42.27 291.9 -42.27 292.94 -42.28 294 C-42.29 303.3 -42.29 303.3 -38 311.25 C-37.34 311.83 -36.68 312.4 -36 313 C-33.85 316.23 -33.8 317.28 -34 321 C-41.43 313.76 -44.99 305.97 -45.38 295.57 C-45.39 293.57 -45.39 291.58 -45.38 289.58 C-45.39 288.48 -45.39 287.37 -45.4 286.23 C-45.41 282.54 -45.4 278.85 -45.39 275.16 C-45.39 272.51 -45.4 269.86 -45.4 267.2 C-45.42 260.76 -45.41 254.31 -45.41 247.86 C-45.4 242.62 -45.4 237.38 -45.4 232.14 C-45.4 231.39 -45.4 230.64 -45.4 229.87 C-45.4 228.35 -45.4 226.83 -45.41 225.32 C-45.41 211.09 -45.4 196.86 -45.39 182.64 C-45.37 170.45 -45.38 158.25 -45.39 146.06 C-45.41 131.89 -45.41 117.71 -45.4 103.54 C-45.4 102.02 -45.4 100.51 -45.4 99 C-45.4 98.25 -45.4 97.51 -45.4 96.74 C-45.4 91.51 -45.4 86.28 -45.41 81.05 C-45.42 74.66 -45.41 68.28 -45.4 61.9 C-45.39 58.65 -45.39 55.4 -45.4 52.15 C-45.41 48.61 -45.4 45.08 -45.38 41.54 C-45.39 40.53 -45.39 39.51 -45.4 38.47 C-45.33 30.18 -43.93 22.37 -40 15 C-39.34 15 -38.68 15 -38 15 C-37.67 14.01 -37.34 13.02 -37 12 C-35.48 10.46 -35.48 10.46 -33.62 8.94 C-33.02 8.43 -32.41 7.92 -31.79 7.4 C-27.45 4 -27.45 4 -24 4 C-24 3.34 -24 2.68 -24 2 C-15.95 -0.26 -8.3 -0.2 0 0 Z " fill="#4ABA5B" transform="translate(564,174)"/>
<path d="M0 0 C0.33 0.99 0.66 1.98 1 3 C-0.67 4.67 -2.33 6.33 -4 8 C-5.14 9.27 -5.14 9.27 -6.31 10.56 C-14.47 17.96 -23.45 18.15 -33.99 18.13 C-35.1 18.14 -36.21 18.14 -37.35 18.14 C-41.07 18.15 -44.79 18.15 -48.51 18.15 C-51.17 18.15 -53.84 18.15 -56.51 18.16 C-63 18.16 -69.49 18.17 -75.98 18.17 C-81.26 18.17 -86.53 18.17 -91.81 18.17 C-106.78 18.18 -121.75 18.19 -136.72 18.19 C-137.53 18.19 -138.34 18.19 -139.17 18.19 C-140.38 18.19 -140.38 18.19 -141.62 18.19 C-154.71 18.18 -167.79 18.19 -180.88 18.21 C-194.33 18.22 -207.77 18.23 -221.22 18.23 C-228.77 18.23 -236.31 18.23 -243.86 18.24 C-250.28 18.25 -256.71 18.25 -263.13 18.25 C-266.41 18.24 -269.69 18.24 -272.96 18.25 C-276.52 18.26 -280.08 18.25 -283.63 18.25 C-284.66 18.25 -285.69 18.26 -286.75 18.26 C-294.98 18.22 -302.79 17.99 -309.06 12.12 C-309.82 11.45 -310.57 10.77 -311.35 10.07 C-313 8 -313 8 -313 4 C-312.34 4 -311.68 4 -311 4 C-311 4.66 -311 5.32 -311 6 C-310.48 6.23 -309.97 6.45 -309.44 6.69 C-307.31 7.83 -305.74 9 -303.88 10.5 C-296.65 15.69 -287.29 15.29 -278.74 15.24 C-277.1 15.24 -277.1 15.24 -275.43 15.25 C-271.8 15.25 -268.17 15.24 -264.54 15.23 C-261.93 15.23 -259.31 15.23 -256.7 15.23 C-251.09 15.23 -245.48 15.22 -239.87 15.21 C-231.75 15.2 -223.64 15.19 -215.52 15.19 C-202.36 15.18 -189.19 15.17 -176.03 15.15 C-163.24 15.13 -150.46 15.12 -137.67 15.11 C-136.88 15.11 -136.09 15.11 -135.28 15.11 C-131.32 15.11 -127.36 15.1 -123.41 15.1 C-90.6 15.08 -57.8 15.04 -25 15 C-25 14.34 -25 13.68 -25 13 C-23.89 13.14 -22.77 13.29 -21.62 13.44 C-13.13 13.45 -5.99 5.34 0 0 Z " fill="#2BBA72" transform="translate(843,487)"/>
<path d="M0 0 C0.66 0 1.32 0 2 0 C2.05 35.31 2.08 70.63 2.1 105.94 C2.1 110.11 2.11 114.28 2.11 118.44 C2.11 119.27 2.11 120.1 2.11 120.96 C2.12 134.4 2.14 147.84 2.15 161.28 C2.17 175.07 2.18 188.86 2.19 202.64 C2.19 211.15 2.2 219.66 2.22 228.17 C2.23 234.01 2.23 239.84 2.23 245.67 C2.23 249.04 2.23 252.41 2.24 255.77 C2.25 259.42 2.25 263.07 2.24 266.72 C2.25 267.79 2.25 268.85 2.26 269.95 C2.24 275.06 1.98 279.21 0 284 C-0.36 285.66 -0.7 287.33 -1 289 C-1.66 289 -2.32 289 -3 289 C-3.19 289.58 -3.37 290.15 -3.56 290.75 C-5.11 293.18 -6.09 293.78 -8.56 295.12 C-12.04 296.59 -12.04 296.59 -13 299 C-15.29 299.63 -15.29 299.63 -18.06 300.12 C-18.98 300.29 -19.9 300.46 -20.85 300.63 C-21.56 300.75 -22.27 300.88 -23 301 C-23 300.01 -23 299.02 -23 298 C-22.43 297.73 -21.87 297.47 -21.29 297.2 C-20.18 296.67 -20.18 296.67 -19.06 296.12 C-18.33 295.78 -17.6 295.43 -16.85 295.07 C-14.84 294.13 -14.84 294.13 -14 292 C-12.92 291.66 -12.92 291.66 -11.81 291.31 C-7.09 289.11 -4.02 285.32 -1.93 280.57 C-0.64 275.61 -0.71 270.88 -0.72 265.76 C-0.72 264.63 -0.71 263.49 -0.7 262.32 C-0.69 258.51 -0.68 254.7 -0.68 250.89 C-0.67 248.16 -0.66 245.43 -0.65 242.7 C-0.63 236.82 -0.61 230.94 -0.6 225.07 C-0.59 216.57 -0.56 208.07 -0.54 199.57 C-0.49 185.78 -0.45 171.99 -0.42 158.2 C-0.39 144.81 -0.36 131.41 -0.32 118.02 C-0.31 116.78 -0.31 116.78 -0.31 115.52 C-0.3 111.37 -0.29 107.23 -0.27 103.09 C-0.17 68.72 -0.08 34.36 0 0 Z " fill="#FBCD22" transform="translate(500,548)"/>
<path d="M0 0 C1.12 -0 2.23 -0.01 3.38 -0.01 C7.1 -0.03 10.82 -0.02 14.54 -0.01 C17.22 -0.01 19.89 -0.02 22.57 -0.02 C29.07 -0.04 35.57 -0.03 42.07 -0.02 C47.36 -0.02 52.64 -0.02 57.93 -0.02 C58.68 -0.02 59.44 -0.02 60.21 -0.02 C61.75 -0.02 63.28 -0.02 64.81 -0.02 C79.15 -0.03 93.5 -0.02 107.84 -0.01 C120.13 0.01 132.43 0 144.72 -0.01 C159.02 -0.03 173.31 -0.03 187.6 -0.02 C189.13 -0.02 190.65 -0.02 192.18 -0.02 C193.3 -0.02 193.3 -0.02 194.45 -0.02 C199.73 -0.02 205 -0.02 210.28 -0.03 C216.72 -0.04 223.15 -0.03 229.59 -0.02 C232.87 -0.01 236.15 -0.01 239.43 -0.02 C242.99 -0.03 246.55 -0.01 250.11 0 C251.14 -0.01 252.17 -0.01 253.23 -0.02 C259.8 0.03 268.22 0.15 273.26 4.94 C273.94 5.65 273.94 5.65 274.62 6.38 C276.72 7.1 276.72 7.1 278.62 7.38 C278.62 8.04 278.62 8.7 278.62 9.38 C275.25 9.13 275.25 9.13 271.62 8.38 C270.18 6.32 270.18 6.32 269.62 4.38 C267.64 4.38 265.66 4.38 263.62 4.38 C263.62 3.72 263.62 3.06 263.62 2.38 C229.05 2.44 194.47 2.51 159.9 2.61 C155.81 2.62 151.73 2.63 147.64 2.64 C146.42 2.65 146.42 2.65 145.18 2.65 C132.02 2.69 118.87 2.71 105.71 2.73 C92.21 2.75 78.7 2.79 65.2 2.83 C56.87 2.86 48.54 2.87 40.21 2.88 C34.49 2.89 28.78 2.9 23.06 2.93 C19.76 2.94 16.47 2.95 13.17 2.95 C9.59 2.94 6.01 2.96 2.43 2.98 C1.4 2.98 0.37 2.97 -0.68 2.97 C-7.93 3.04 -14.43 4.36 -21.38 6.38 C-20.38 3.38 -20.38 3.38 -18.71 2.45 C-12.39 0.34 -6.63 -0.04 0 0 Z " fill="#3C98D1" transform="translate(557.3791351318359,517.6190490722656)"/>
<path d="M0 0 C3.76 1.68 6.97 4.04 10.25 6.5 C10.8 6.9 11.36 7.31 11.93 7.72 C13.33 8.76 14.67 9.88 16 11 C16 11.66 16 12.32 16 13 C17.32 13.33 18.64 13.66 20 14 C20 14.66 20 15.32 20 16 C20.66 16 21.32 16 22 16 C22.33 16.68 22.65 17.35 22.99 18.05 C23.43 18.94 23.86 19.83 24.31 20.75 C24.74 21.63 25.17 22.51 25.61 23.42 C26.9 25.98 26.9 25.98 28.54 28 C36.91 39.45 35.99 57.68 34 71 C32.15 78.87 29.08 86.63 24 93 C22.68 93.7 21.35 94.37 20 95 C19.35 97.02 19.35 97.02 19 99 C18.01 99.5 18.01 99.5 17 100 C16.34 100.99 15.68 101.98 15 103 C14.34 102.67 13.68 102.34 13 102 C12.5 103.49 12.5 103.49 12 105 C9.56 106.94 9.56 106.94 6.44 109 C5.43 109.68 4.41 110.36 3.37 111.06 C-3.09 114.78 -9.24 116.51 -16.62 117.25 C-17.41 117.33 -18.19 117.41 -18.99 117.49 C-33.77 118.85 -48.76 117.09 -61 108 C-61.81 105.81 -61.81 105.81 -62 104 C-61.01 104 -60.02 104 -59 104 C-58.34 104.99 -57.68 105.98 -57 107 C-54.67 107.68 -52.34 108.35 -50 109 C-48.75 109.65 -47.52 110.34 -46.31 111.06 C-36.72 116.67 -20.6 115.6 -10.12 112.95 C-6.62 111.88 -3.26 110.66 0 109 C0.33 108.34 0.66 107.68 1 107 C1.99 107 2.98 107 4 107 C4 106.34 4 105.68 4 105 C4.72 104.77 5.44 104.55 6.19 104.31 C10.76 102.18 13.58 98.55 16.69 94.69 C17.45 93.8 18.21 92.91 19 92 C19.66 92 20.32 92 21 92 C21.19 91.13 21.19 91.13 21.38 90.25 C22.01 87.95 22.79 86.06 24 84 C24.66 83.67 25.32 83.34 26 83 C26.81 80.96 26.81 80.96 27.44 78.5 C28.36 75.15 29.4 71.97 30.69 68.75 C35.58 54.23 30.04 39.2 24 26 C23.02 24.65 22.03 23.31 21 22 C21 21.34 21 20.68 21 20 C19.68 20 18.36 20 17 20 C17 18.35 17 16.7 17 15 C16.42 14.73 15.85 14.46 15.25 14.19 C12.94 12.97 10.98 11.7 9 10 C9 9.34 9 8.68 9 8 C8.44 7.9 7.89 7.79 7.31 7.69 C4.47 6.84 2.37 5.78 0 4 C0 2.68 0 1.36 0 0 Z " fill="#4693EB" transform="translate(711,628)"/>
<path d="M0 0 C-1.29 0.67 -2.58 1.34 -3.88 2 C-4.59 2.37 -5.31 2.74 -6.05 3.12 C-8 4 -8 4 -10 4 C-10.66 5.32 -11.32 6.64 -12 8 C-12.66 8 -13.32 8 -14 8 C-14.25 8.64 -14.5 9.28 -14.75 9.94 C-16 13 -16 13 -16.98 14.86 C-20.19 21.18 -20.56 26.59 -20.48 33.6 C-20.48 34.74 -20.49 35.88 -20.49 37.05 C-20.5 40.85 -20.48 44.65 -20.45 48.45 C-20.45 51.18 -20.45 53.91 -20.46 56.64 C-20.46 62.51 -20.45 68.38 -20.42 74.25 C-20.39 82.74 -20.38 91.22 -20.37 99.71 C-20.37 113.48 -20.34 127.25 -20.3 141.03 C-20.27 154.4 -20.24 167.77 -20.22 181.15 C-20.22 181.97 -20.22 182.8 -20.22 183.65 C-20.21 187.79 -20.21 191.93 -20.2 196.06 C-20.16 230.38 -20.09 264.69 -20 299 C-22.14 295.79 -22.25 294.97 -22.25 291.27 C-22.26 290.29 -22.27 289.32 -22.27 288.31 C-22.27 287.23 -22.26 286.15 -22.26 285.04 C-22.26 283.9 -22.27 282.76 -22.27 281.58 C-22.28 278.41 -22.28 275.23 -22.28 272.05 C-22.27 268.63 -22.28 265.21 -22.29 261.78 C-22.3 255.07 -22.3 248.37 -22.3 241.66 C-22.3 236.2 -22.3 230.75 -22.31 225.3 C-22.31 224.52 -22.31 223.75 -22.31 222.95 C-22.31 221.38 -22.31 219.8 -22.31 218.23 C-22.32 203.45 -22.32 188.67 -22.31 173.89 C-22.31 160.37 -22.32 146.84 -22.34 133.32 C-22.36 119.44 -22.37 105.56 -22.36 91.68 C-22.36 83.88 -22.36 76.09 -22.38 68.29 C-22.39 61.65 -22.39 55.02 -22.38 48.38 C-22.37 44.99 -22.37 41.61 -22.38 38.22 C-22.39 34.55 -22.39 30.88 -22.37 27.21 C-22.38 26.14 -22.39 25.07 -22.4 23.96 C-22.33 15.11 -22.33 15.11 -19 11 C-18.6 10.38 -18.2 9.76 -17.79 9.12 C-14.71 4.67 -11.79 0.88 -6.44 -0.81 C-3.99 -1 -2.34 -0.65 0 0 Z " fill="#5895E5" transform="translate(542,524)"/>
<path d="M0 0 C0.33 0 0.66 0 1 0 C1.07 35.53 1.12 71.07 1.15 106.6 C1.16 110.8 1.16 114.99 1.16 119.19 C1.17 120.02 1.17 120.86 1.17 121.72 C1.18 135.24 1.2 148.77 1.23 162.29 C1.26 176.16 1.28 190.04 1.28 203.92 C1.29 212.48 1.3 221.04 1.32 229.6 C1.34 235.48 1.34 241.35 1.34 247.22 C1.34 250.61 1.34 253.99 1.36 257.38 C1.37 261.06 1.37 264.73 1.36 268.41 C1.37 269.47 1.38 270.54 1.39 271.64 C1.34 278.66 0.15 283.69 -3 290 C-3.66 290 -4.32 290 -5 290 C-4.22 284.94 -3.14 279.98 -2 275 C-1.34 275 -0.68 275 0 275 C-0 274.42 -0 273.84 -0.01 273.24 C-0.16 238.94 -0.3 204.64 -0.43 170.33 C-0.45 166.22 -0.47 162.1 -0.48 157.99 C-0.49 157.17 -0.49 156.35 -0.49 155.51 C-0.54 142.23 -0.6 128.94 -0.66 115.66 C-0.72 102.04 -0.77 88.43 -0.83 74.81 C-0.86 66.4 -0.89 57.99 -0.93 49.58 C-0.96 43.82 -0.98 38.06 -1 32.3 C-1.01 28.98 -1.02 25.65 -1.04 22.32 C-1.06 18.72 -1.07 15.12 -1.08 11.52 C-1.09 10.46 -1.1 9.4 -1.1 8.3 C-1.1 7.34 -1.11 6.39 -1.11 5.4 C-1.11 4.57 -1.11 3.74 -1.12 2.88 C-1 1 -1 1 0 0 Z " fill="#E1C542" transform="translate(504,544)"/>
<path d="M0 0 C0.66 0 1.32 0 2 0 C2.05 35.57 2.08 71.14 2.1 106.7 C2.1 110.9 2.11 115.1 2.11 119.3 C2.11 120.14 2.11 120.97 2.11 121.83 C2.12 135.37 2.14 148.91 2.15 162.44 C2.17 176.33 2.18 190.22 2.19 204.11 C2.19 212.68 2.2 221.25 2.22 229.82 C2.23 235.69 2.23 241.57 2.23 247.45 C2.23 250.84 2.23 254.23 2.24 257.62 C2.25 261.3 2.25 264.97 2.24 268.65 C2.25 269.72 2.25 270.79 2.26 271.9 C2.24 276.95 2.17 281.32 0 286 C-2.12 287.88 -2.12 287.88 -4 289 C-3.58 286.48 -3.18 284.34 -2 282.06 C0.84 276.2 0.14 269.23 0.12 262.88 C0.12 261.19 0.12 261.19 0.12 259.47 C0.12 255.7 0.12 251.93 0.11 248.17 C0.11 245.47 0.11 242.77 0.11 240.07 C0.11 234.25 0.11 228.44 0.11 222.62 C0.1 214.22 0.09 205.81 0.09 197.4 C0.09 183.76 0.08 170.12 0.08 156.48 C0.07 143.23 0.06 129.98 0.05 116.74 C0.05 115.92 0.05 115.1 0.05 114.26 C0.05 110.16 0.05 106.06 0.05 101.97 C0.04 67.98 0.02 33.99 0 0 Z " fill="#E0833E" transform="translate(503,200)"/>
<path d="M0 0 C0.33 0 0.66 0 1 0 C1 0.57 1 1.15 1 1.74 C0.93 35.79 0.88 69.83 0.85 103.88 C0.84 107.97 0.84 112.05 0.84 116.14 C0.83 116.96 0.83 117.77 0.83 118.61 C0.82 131.79 0.8 144.96 0.77 158.14 C0.74 171.66 0.72 185.18 0.72 198.71 C0.71 207.05 0.7 215.39 0.68 223.73 C0.66 229.46 0.66 235.18 0.66 240.9 C0.66 244.2 0.66 247.5 0.64 250.8 C0.63 254.39 0.63 257.97 0.64 261.55 C0.63 263.11 0.63 263.11 0.61 264.69 C0.65 270.35 1.3 274.89 3.45 280.14 C4 282 4 282 3 285 C-0.67 280.69 -1.12 276.67 -1.13 271.13 C-1.13 270.17 -1.13 269.21 -1.13 268.22 C-1.13 267.18 -1.13 266.13 -1.13 265.05 C-1.13 263.94 -1.13 262.82 -1.13 261.67 C-1.14 257.92 -1.13 254.17 -1.13 250.42 C-1.13 247.73 -1.13 245.05 -1.13 242.36 C-1.14 235.82 -1.14 229.28 -1.14 222.74 C-1.13 217.43 -1.13 212.11 -1.13 206.8 C-1.13 206.04 -1.13 205.28 -1.13 204.51 C-1.13 202.97 -1.13 201.43 -1.14 199.9 C-1.14 185.49 -1.13 171.09 -1.13 156.69 C-1.12 144.32 -1.13 131.96 -1.13 119.59 C-1.14 105.23 -1.14 90.88 -1.13 76.52 C-1.13 75 -1.13 73.47 -1.13 71.94 C-1.13 71.18 -1.13 70.43 -1.13 69.65 C-1.13 64.34 -1.13 59.03 -1.14 53.72 C-1.14 47.25 -1.14 40.79 -1.13 34.32 C-1.13 31.02 -1.13 27.72 -1.13 24.41 C-1.14 20.84 -1.13 17.27 -1.13 13.69 C-1.13 12.64 -1.13 11.59 -1.13 10.51 C-1.13 9.56 -1.13 8.6 -1.13 7.62 C-1.13 6.79 -1.13 5.97 -1.13 5.12 C-1 3 -1 3 0 0 Z " fill="#31BC5B" transform="translate(522,200)"/>
<path d="M0 0 C1.03 0 2.06 0.01 3.12 0.01 C4.72 0.02 4.72 0.02 6.36 0.04 C7.45 0.04 8.53 0.04 9.65 0.05 C12.32 0.06 15 0.08 17.68 0.1 C18.17 1.58 18.17 1.58 18.68 3.1 C17.49 3.07 16.31 3.05 15.09 3.03 C2.67 2.51 2.67 2.51 -9.32 5.1 C-9.82 5.61 -10.32 6.12 -10.84 6.65 C-13.03 8.79 -15.33 8.41 -18.26 8.65 C-21.76 9.41 -23.71 11.73 -26.32 14.1 C-27.31 14.1 -28.3 14.1 -29.32 14.1 C-29.32 14.76 -29.32 15.42 -29.32 16.1 C-30.61 17.47 -31.95 18.81 -33.32 20.1 C-33.98 20.76 -34.64 21.42 -35.32 22.1 C-36.31 22.1 -37.3 22.1 -38.32 22.1 C-38.45 22.7 -38.57 23.29 -38.7 23.91 C-39.32 26.1 -39.32 26.1 -41.32 29.1 C-41.98 29.1 -42.64 29.1 -43.32 29.1 C-44.31 31.57 -44.31 31.57 -45.32 34.1 C-45.98 34.1 -46.64 34.1 -47.32 34.1 C-47.2 35.27 -47.2 35.27 -47.07 36.47 C-47.37 40.71 -48.71 43.7 -50.38 47.56 C-51.29 50 -51.67 52.02 -51.89 54.6 C-52.1 56.33 -52.1 56.33 -52.32 58.1 C-53.31 58.76 -54.3 59.42 -55.32 60.1 C-55.84 49.49 -52.89 40.1 -47.39 31.04 C-46.88 30.2 -46.38 29.36 -45.86 28.5 C-44.43 26.27 -43.04 24.12 -41.32 22.1 C-40.66 22.1 -40 22.1 -39.32 22.1 C-39.32 21.44 -39.32 20.78 -39.32 20.1 C-38.66 20.1 -38 20.1 -37.32 20.1 C-37.32 19.44 -37.32 18.78 -37.32 18.1 C-36.66 18.1 -36 18.1 -35.32 18.1 C-35.32 17.44 -35.32 16.78 -35.32 16.1 C-34.66 16.1 -34 16.1 -33.32 16.1 C-33.06 15.46 -32.79 14.82 -32.51 14.16 C-31.32 12.1 -31.32 12.1 -28.32 11.1 C-27.99 10.44 -27.66 9.78 -27.32 9.1 C-26 9.1 -24.68 9.1 -23.32 9.1 C-22.99 8.11 -22.66 7.12 -22.32 6.1 C-20.02 5.08 -17.84 4.24 -15.45 3.47 C-14.81 3.26 -14.17 3.04 -13.52 2.82 C-11.79 2.23 -10.06 1.66 -8.32 1.1 C-5.27 0.08 -3.2 -0.02 0 0 Z " fill="#4992EA" transform="translate(677.32421875,621.90234375)"/>
<path d="M0 0 C2.87 0.57 3.86 0.86 6 3 C6.33 5.38 6.52 7.65 6.63 10.04 C6.67 10.78 6.71 11.52 6.74 12.29 C7.29 24.43 7.02 36.62 6.9 48.77 C6.87 52.04 6.86 55.31 6.84 58.59 C6.82 60.09 6.82 60.09 6.8 61.63 C6.8 62.55 6.79 63.48 6.79 64.43 C6.78 65.24 6.77 66.06 6.77 66.89 C6.87 69.3 6.87 69.3 9 72 C8.5 72.99 8.5 72.99 8 74 C6.68 73.67 5.36 73.34 4 73 C3.86 65.71 3.71 58.42 3.57 51.12 C3.52 48.65 3.48 46.18 3.43 43.7 C3.36 40.12 3.29 36.54 3.22 32.96 C3.2 31.81 3.17 30.66 3.15 29.47 C3.02 22.44 2.99 15.43 3.18 8.39 C3.18 5.73 3.18 5.73 1 3 C0.34 2.67 -0.32 2.34 -1 2 C-0.67 1.34 -0.34 0.68 0 0 Z " fill="#F9D929" transform="translate(306,602)"/>
<path d="M0 0 C0.47 0.41 0.94 0.82 1.43 1.24 C2.05 1.78 2.67 2.32 3.31 2.88 C4.23 3.68 4.23 3.68 5.18 4.49 C7.13 6.16 7.13 6.16 10 8 C10 8.66 10 9.32 10 10 C10.61 10.2 11.23 10.41 11.86 10.62 C16.93 12.31 16.93 12.31 22 14 C24.51 14.14 26.99 14.23 29.5 14.28 C30.24 14.3 30.99 14.32 31.76 14.34 C33.35 14.37 34.94 14.41 36.53 14.45 C40.63 14.54 44.73 14.64 48.83 14.75 C49.63 14.77 50.43 14.79 51.25 14.81 C59.85 15.04 68.42 15.46 77 16 C77 16.33 77 16.66 77 17 C69.35 17.08 61.7 17.13 54.05 17.16 C51.45 17.18 48.85 17.2 46.25 17.23 C42.5 17.26 38.76 17.28 35.01 17.29 C33.28 17.32 33.28 17.32 31.52 17.34 C22.59 17.34 15.17 15.54 7 12 C7 11.34 7 10.68 7 10 C6.34 10 5.68 10 5 10 C5 9.34 5 8.68 5 8 C4.01 7.67 3.02 7.34 2 7 C0.81 3.44 0.81 3.44 0 0 Z " fill="#4A8DE1" transform="translate(526,832)"/>
<path d="M0 0 C0.66 0 1.32 0 2 0 C2 0.66 2 1.32 2 2 C2.52 2.23 3.03 2.45 3.56 2.69 C5.69 3.83 7.26 5 9.12 6.5 C12.85 9.25 16.44 9.96 20.96 10.64 C23 11 23 11 24 12 C25.66 12.12 27.32 12.18 28.98 12.21 C30.57 12.24 30.57 12.24 32.19 12.27 C33.35 12.28 34.5 12.3 35.69 12.32 C36.87 12.34 38.04 12.36 39.25 12.38 C43.02 12.45 46.79 12.5 50.56 12.56 C53.11 12.61 55.66 12.65 58.21 12.69 C64.47 12.8 70.74 12.9 77 13 C77 13.33 77 13.66 77 14 C69.46 14.05 61.93 14.08 54.39 14.1 C50.89 14.11 47.39 14.13 43.89 14.15 C39.85 14.18 35.82 14.19 31.79 14.2 C30.54 14.21 29.3 14.22 28.02 14.23 C10.47 14.23 10.47 14.23 3.94 8.12 C3.18 7.45 2.43 6.77 1.65 6.07 C0 4 0 4 0 0 Z " fill="#33B775" transform="translate(530,491)"/>
<path d="M0 0 C-5.41 5.78 -5.41 5.78 -8.48 6.91 C-11.61 8.26 -12.73 9.86 -14.69 12.62 C-15.75 14.12 -16.84 15.58 -18 17 C-18.66 17 -19.32 17 -20 17 C-19.67 17.99 -19.34 18.98 -19 20 C-19.99 20.33 -20.98 20.66 -22 21 C-22.33 21.99 -22.66 22.98 -23 24 C-25.06 25.19 -25.06 25.19 -27 26 C-25.89 22.5 -24.69 19.26 -23 16 C-22.69 15.37 -22.38 14.75 -22.06 14.11 C-18.08 6.91 -11.97 2.7 -4.5 -0.5 C-2 -1 -2 -1 0 0 Z " fill="#F8C728" transform="translate(202,520)"/>
<path d="M0 0 C0.33 0 0.66 0 1 0 C0.31 5.42 -0.76 10.68 -2 16 C-2.66 16 -3.32 16 -4 16 C-4.19 16.58 -4.37 17.15 -4.56 17.75 C-6.11 20.18 -7.09 20.78 -9.56 22.12 C-13.04 23.59 -13.04 23.59 -14 26 C-16.29 26.63 -16.29 26.63 -19.06 27.12 C-19.98 27.29 -20.9 27.46 -21.85 27.63 C-22.56 27.75 -23.27 27.88 -24 28 C-24 27.01 -24 26.02 -24 25 C-23.43 24.73 -22.87 24.47 -22.29 24.2 C-21.55 23.84 -20.82 23.49 -20.06 23.12 C-19.33 22.78 -18.6 22.43 -17.85 22.07 C-15.84 21.13 -15.84 21.13 -15 19 C-13.92 18.66 -13.92 18.66 -12.81 18.31 C-7.68 15.92 -4.7 11.74 -2.62 6.56 C-2.32 5.29 -2.32 5.29 -2 4 C-1.34 4 -0.68 4 0 4 C0 2.68 0 1.36 0 0 Z " fill="#F5D02D" transform="translate(501,821)"/>
<path d="M0 0 C0.66 0 1.32 0 2 0 C2 1.32 2 2.64 2 4 C2.6 4.25 3.2 4.5 3.81 4.75 C6.36 6.2 7.35 7.6 9 10 C11.55 13.54 11.55 13.54 15 16 C15 16.66 15 17.32 15 18 C15.99 18 16.98 18 18 18 C18.33 19.65 18.66 21.3 19 23 C18.23 22.51 17.46 22.01 16.66 21.5 C15.66 20.86 14.66 20.22 13.62 19.56 C12.63 18.92 11.63 18.29 10.6 17.63 C8.14 16.03 8.14 16.03 6 15 C4.97 13.35 3.98 11.68 3 10 C2.46 9.34 1.93 8.68 1.38 8 C-0.24 5.66 -0.7 3.81 -1 1 C-0.67 0.67 -0.34 0.34 0 0 Z " fill="#F6D024" transform="translate(178,824)"/>
<path d="M0 0 C1.38 0.01 2.75 0.01 4.13 0.01 C7.73 0.02 11.32 0.05 14.92 0.09 C18.6 0.12 22.28 0.13 25.96 0.15 C33.16 0.18 40.36 0.23 47.56 0.29 C47.56 0.62 47.56 0.95 47.56 1.29 C26.77 1.62 5.98 1.95 -15.44 2.29 C-15.44 2.95 -15.44 3.61 -15.44 4.29 C-18.41 4.95 -21.38 5.61 -24.44 6.29 C-23.44 3.29 -23.44 3.29 -21.88 2.35 C-14.62 -0.17 -7.62 -0.09 0 0 Z " fill="#4099C8" transform="translate(560.44140625,517.70703125)"/>
<path d="M0 0 C-1.29 0.67 -2.58 1.34 -3.88 2 C-4.59 2.37 -5.31 2.74 -6.05 3.12 C-8 4 -8 4 -10 4 C-10.66 5.32 -11.32 6.64 -12 8 C-12.66 8 -13.32 8 -14 8 C-14.28 8.71 -14.55 9.41 -14.84 10.14 C-16.03 13.07 -17.31 15.94 -18.62 18.81 C-19.07 19.79 -19.52 20.76 -19.98 21.77 C-20.31 22.51 -20.65 23.24 -21 24 C-22.31 20.07 -22.22 16.91 -21 13 C-17.53 7.31 -12.98 1.26 -6.44 -0.81 C-3.99 -1 -2.34 -0.65 0 0 Z " fill="#5D97D1" transform="translate(542,524)"/>
<path d="M0 0 C3.41 1.14 4.12 2.04 6 5 C6 5.66 6 6.32 6 7 C6.66 7 7.32 7 8 7 C9.28 8.78 10.48 10.63 11.62 12.5 C12.26 13.52 12.89 14.54 13.54 15.59 C14.02 16.39 14.5 17.18 15 18 C14.01 18.99 13.02 19.98 12 21 C10.99 19.57 9.99 18.13 9 16.69 C8.44 15.89 7.89 15.09 7.31 14.26 C6 12 6 12 6 9 C5.34 9 4.68 9 4 9 C4 8.34 4 7.68 4 7 C3.34 7 2.68 7 2 7 C2 6.34 2 5.68 2 5 C1.34 5 0.68 5 0 5 C0 3.35 0 1.7 0 0 Z " fill="#F7D423" transform="translate(390,613)"/>
<path d="M0 0 C0.23 0.56 0.45 1.11 0.69 1.69 C2.36 4.63 4.55 6.68 7 9 C6.67 9.99 6.34 10.98 6 12 C6.66 12.33 7.32 12.66 8 13 C7.67 15.31 7.34 17.62 7 20 C4.17 16.8 3.48 14.22 3 10 C2.34 10 1.68 10 1 10 C1 9.34 1 8.68 1 8 C0.34 8 -0.32 8 -1 8 C-3.12 6.12 -3.12 6.12 -5 4 C-5 3.34 -5 2.68 -5 2 C-4.36 1.86 -3.72 1.71 -3.06 1.56 C-1.02 1.19 -1.02 1.19 0 0 Z " fill="#F0CC30" transform="translate(495,528)"/>
<path d="M0 0 C0.47 0.41 0.94 0.82 1.43 1.24 C2.05 1.78 2.67 2.32 3.31 2.88 C4.23 3.68 4.23 3.68 5.18 4.49 C7.13 6.16 7.13 6.16 10 8 C10 8.66 10 9.32 10 10 C10.61 10.2 11.23 10.41 11.86 10.62 C16.93 12.31 16.93 12.31 22 14 C22 14.66 22 15.32 22 16 C16.55 15.43 12.09 14.05 7 12 C7 11.34 7 10.68 7 10 C6.34 10 5.68 10 5 10 C5 9.34 5 8.68 5 8 C4.01 7.67 3.02 7.34 2 7 C0.81 3.44 0.81 3.44 0 0 Z " fill="#5995DC" transform="translate(526,832)"/>
<path d="M0 0 C0.66 0 1.32 0 2 0 C2 0.66 2 1.32 2 2 C2.52 2.23 3.03 2.45 3.56 2.69 C5.69 3.83 7.26 5 9.12 6.5 C13.36 9.63 17.87 10.31 23 11 C23 11.33 23 11.66 23 12 C11.17 13.21 11.17 13.21 6.07 10.36 C3.73 8.34 1.75 6.54 0 4 C0 2.68 0 1.36 0 0 Z " fill="#3ABD6D" transform="translate(530,491)"/>
<path d="M0 0 C0.33 0.99 0.66 1.98 1 3 C0.33 3.65 0.33 3.65 -0.36 4.32 C-4.15 8.05 -7.66 11.86 -11 16 C-12.65 15.67 -14.3 15.34 -16 15 C-16.33 12.36 -16.66 9.72 -17 7 C-16.38 7.96 -16.38 7.96 -15.75 8.94 C-13.82 11.21 -12.89 11.6 -10 12 C-9.75 11.38 -9.5 10.76 -9.25 10.12 C-8 8 -8 8 -5.94 7 C-5.3 6.67 -4.66 6.34 -4 6 C-3.63 4.68 -3.29 3.34 -3 2 C-2.01 1.34 -1.02 0.68 0 0 Z " fill="#33C45F" transform="translate(676,346)"/>
<path d="M0 0 C0 0.66 0 1.32 0 2 C0.99 2.33 1.98 2.66 3 3 C1.35 3.33 -0.3 3.66 -2 4 C-2 3.34 -2 2.68 -2 2 C-8.66 0.76 -15.25 0.91 -22 1 C-20 -2 -20 -2 -18 -2.75 C-11.87 -3.26 -5.56 -2.78 0 0 Z " fill="#448EEA" transform="translate(697,661)"/>
<path d="M0 0 C2.75 0.56 3.78 0.77 5.75 2.88 C7 5 7 5 7 8 C7.66 8 8.32 8 9 8 C11.69 10.75 11.69 10.75 14 14 C13.64 16.2 13.64 16.2 13 18 C6.96 12.64 3.17 7.43 0 0 Z " fill="#4592EB" transform="translate(629,712)"/>
<path d="M0 0 C0.66 0 1.32 0 2 0 C4.46 3.69 5.01 6.7 6 11 C6.66 11 7.32 11 8 11 C8 12.65 8 14.3 8 16 C7.01 16.33 6.02 16.66 5 17 C2.85 13.14 1.61 10.45 2 6 C1.34 6 0.68 6 0 6 C-1.12 2.25 -1.12 2.25 0 0 Z " fill="#F9D424" transform="translate(408,640)"/>
<path d="M0 0 C0.66 0.33 1.32 0.66 2 1 C0.02 1.66 -1.96 2.32 -4 3 C-4 3.66 -4 4.32 -4 5 C-4.93 5.62 -5.86 6.24 -6.81 6.88 C-9.7 8.8 -11.04 10.25 -13 13 C-13.66 13 -14.32 13 -15 13 C-14.76 9.75 -13.82 8.83 -11.44 6.5 C-7.98 3.8 -4.16 1.44 0 0 Z " fill="#3F80E7" transform="translate(542,523)"/>
<path d="M0 0 C-1.29 0.67 -2.58 1.34 -3.88 2 C-4.59 2.37 -5.31 2.74 -6.05 3.12 C-8 4 -8 4 -10 4 C-10.66 5.32 -11.32 6.64 -12 8 C-12.66 7.67 -13.32 7.34 -14 7 C-12.94 4.12 -12.94 4.12 -11 1 C-6.88 -0.72 -4.24 -1.28 0 0 Z " fill="#5095D8" transform="translate(542,524)"/>
<path d="M0 0 C0.99 0 1.98 0 3 0 C3 3.3 3 6.6 3 10 C2.34 9.67 1.68 9.34 1 9 C1 8.01 1 7.02 1 6 C0.34 6 -0.32 6 -1 6 C-1.04 4.33 -1.04 2.67 -1 1 C-0.67 0.67 -0.34 0.34 0 0 Z " fill="#FBD625" transform="translate(269,664)"/>
<path d="M0 0 C1.66 2.49 2.94 4.8 4.19 7.5 C4.55 8.27 4.92 9.05 5.29 9.84 C6 12 6 12 5 15 C1.25 9.84 -0.67 6.44 0 0 Z " fill="#639AD8" transform="translate(522,823)"/>
<path d="M0 0 C0.33 0 0.66 0 1 0 C2.1 5.94 2.41 9.68 -1 15 C-1.66 15 -2.32 15 -3 15 C-2.22 9.94 -1.14 4.98 0 0 Z " fill="#ECCD41" transform="translate(502,819)"/>
<path d="M0 0 C1.98 0.5 1.98 0.5 4 1 C4.93 4.01 5.04 4.87 4 8 C3.34 8 2.68 8 2 8 C0.31 5.69 0.31 5.69 -1 3 C-0.67 2.01 -0.34 1.02 0 0 Z " fill="#F3D429" transform="translate(290,668)"/>
<path d="M0 0 C1.32 0.33 2.64 0.66 4 1 C4 2.98 4 4.96 4 7 C3.34 7 2.68 7 2 7 C1.67 7.66 1.34 8.32 1 9 C0.67 6.03 0.34 3.06 0 0 Z " fill="#F8D627" transform="translate(284,604)"/>
<path d="M0 0 C0.66 0.33 1.32 0.66 2 1 C1.39 1.69 1.39 1.69 0.76 2.39 C0.22 3 -0.32 3.62 -0.88 4.25 C-1.41 4.85 -1.94 5.46 -2.49 6.08 C-3.98 7.97 -5 9.81 -6 12 C-6.71 10.27 -6.71 10.27 -7 8 C-5.57 5.86 -5.57 5.86 -3.56 3.75 C-2.57 2.69 -2.57 2.69 -1.57 1.61 C-1.05 1.08 -0.53 0.55 0 0 Z " fill="#35BF5F" transform="translate(532,184)"/>
<path d="M0 0 C0.33 0.99 0.66 1.98 1 3 C-1.97 3.66 -4.94 4.32 -8 5 C-7.67 4.01 -7.34 3.02 -7 2 C-3.44 0.81 -3.44 0.81 0 0 Z " fill="#5198C6" transform="translate(544,519)"/>
<path d="M0 0 C-2.9 1.93 -3.9 2.3 -7.19 2.62 C-8.45 2.75 -9.7 2.87 -11 3 C-8.22 -1.17 -4.53 -0.22 0 0 Z " fill="#F7702F" transform="translate(480,500)"/>
<path d="" fill="#F67348" transform="translate(0,0)"/>
<path d="" fill="#F5CF26" transform="translate(0,0)"/>
<path d="" fill="#2EC257" transform="translate(0,0)"/>
<path d="" fill="#F7754B" transform="translate(0,0)"/>
</svg>
